<mxfile host="app.diagrams.net" modified="2020-12-24T16:30:54.729Z" agent="5.0 (Windows NT 10.0; Win64; x64) AppleWebKit/537.36 (KHTML, like Gecko) Chrome/87.0.4280.88 Safari/537.36 Edg/87.0.664.66" etag="UHuFPNfhHinm6Vnl5E_t" version="14.1.2" type="github">
  <diagram id="uCESOFsQqRO4YI1hC_lt" name="Page-1">
    <mxGraphModel dx="1312" dy="1709" grid="1" gridSize="10" guides="1" tooltips="1" connect="1" arrows="1" fold="1" page="1" pageScale="1" pageWidth="1169" pageHeight="827" math="0" shadow="0">
      <root>
        <mxCell id="0" />
        <mxCell id="1" parent="0" />
        <mxCell id="9LfVYxGMdytWgAIbFfiO-2" value="" style="aspect=fixed;html=1;points=[];align=center;image;fontSize=12;image=img/lib/azure2/integration/API_Management_Services.svg;" vertex="1" parent="1">
          <mxGeometry x="140" y="330" width="65" height="60" as="geometry" />
        </mxCell>
        <mxCell id="9LfVYxGMdytWgAIbFfiO-3" value="" style="aspect=fixed;html=1;points=[];align=center;image;fontSize=12;image=img/lib/azure2/identity/App_Registrations.svg;" vertex="1" parent="1">
          <mxGeometry x="310" y="240" width="63" height="64" as="geometry" />
        </mxCell>
        <mxCell id="9LfVYxGMdytWgAIbFfiO-7" value="" style="shape=image;verticalLabelPosition=bottom;labelBackgroundColor=#ffffff;verticalAlign=top;aspect=fixed;imageAspect=0;image=data:image/png,iVBORw0KGgoAAAANSUhEUgAAAI8AAACKCAYAAACTrhkgAAAgAElEQVR4Ae2dB5hkVZn3q3N3VXflnKtz92QYFMwiIhIUJKMiKq6YUTCwyoou6K6767q66rqiriiuAcWA8ImIq7IihhUDKhIkDTMMkzp3xfd7fu+pU1Xd02kCMyPQz3P63sr3nvM/bw6Ocrksh8IQqYhIeYHB8xUpl0sLjlL1+YU/W/++Srkoi4+S8Gd+ae+OpbJIfXC9c+e1Ui7Vfl/KRZFSQaSUr46C8Pr8zzQ+1gtc4l/jew/UueNA/dByv7MweOxysjBlKVUaRrkipXJFipWKPr/w51cOnkKxLPlSZS9HWYpPgmfublluwfff6+z8+kLXzwGPgQXAKdYGoBEdBT2a9y1FM8zOZ/fvPrgPrqC4L4PrKJthKNBc6jP3dy3lgfoUBEr0JOWZR6pXDi4DnkJ+ugaiMqRdKlIslZSdzBQKUigDoIouNJ/IV0RmSuZxvsD7zV+xWJKpqWkpVJ+zx1KpLAz+OG7Z8oj87Ge3yde/8U35z89+Xi7/x3+Ri971Hrn4kkvlkr97v7zr0vfJO99zmZ7z3KXv/4B88sr/kq998zq55bZfyX2bHpFdU3kFnYW/PQLnckVkemZWpqZnpFTiFfNXKhakWJit32upIPk8j83f7OysFAoFfVAsFoWx8rk8cATgEGFbJSkVZ6VYmKlNaKlUUBknXywI8GHJZ4olGZuaVsAAFaZ3piIyVSjr69MzBRmfmFbZwzK8Yklk+44xufab35F//pePyNnnvFzWrT9cItGE9Lh90tHpkpa2LnEHItLq9IijzSktXW5p7/bpsamjW48dPX6x547WLj33hOISTffJwKr18uLTzpJ3XXqZXHvdDXLvA5tktmioWSOYAPhsnvsyAIbaFAt5KVSBMzExITt37pSZGebB/AGkSmUuFTtUgHTIgEdq9KSsuzKfZ7cWBfAw1flSScEDpYHiTJdFJgplmSxWZKYMBap/w7ZdE/KF//6qnHL6WZIbGBZ/OCad3R5pd/ZIh8stPb6ghGJJiadzEk1mJBhLSU8wLt5oWoLJXgmn+yWU6tPzQCKnR57nPJod1Nf88awwekIJ8URS0ur0KuAAYKc7IH3Dq+Wsl58nn//SV+Se+x/Su+M+ANNMviiTU9NKlSzIoUyAxP7l83mlVva5QwUwjddxyICnjOYhhgLNzkyJZVvIOpbqzJbr1GaiWJHpigjEfrIk8ps/3i3v/4d/kbUbj9JFhEqwiN5wQvzRlMQy/RJJ9UookZVgPKNHzhmBeFZ88ZyEM4MSyQ5JINmnjzmG0gMSTPXrY2/MvI+jPfcnequvZyWSGVBwATKXPyrNnW6lUE5vSNYe/lR592WXy+133DmHzUGhxiamFEyNFKeRzTUu2KF0fsiAB3kHAMG+KuWCVColmZmZVnkhXyrLbKkiOydnZGy2IMCMcfemrXLFhz8m6496ljj9UWlx+aTDE1LKkOwfldTAKl1MXyyjVINFtRSDI4+hMADEl+iTYHpQj65QSpzBpHhiOfHGe6UnkpFo76iEMkP6XHc4LQx3NCv+ZL9+zn6W9/I8gGMEkr0Syw2JO5wU2J2juVNWH/ZUueKfPiJ/vPu+GpCgOdPT0wLrsn+Ayco+hxJo7LUcMuAxBN3qOyWBbU1NTao6XihXZKpQUhkHOefbN94sx51yhriCMWn3BMUby4g7klZqAPVgWOoAZfBEM8LRDqhM4+uB1ID4kwMSSA+JLzkg7liveBP9EswMiz81KD3RnHjiffoaR97Ha7yHx85QWkLZEX2e5/hMODdqPhvJKOAsVYv1Diubc7R0idMfkTNf/mr58te/JVPTRmCGTQEgZB37B4jsgh1Kx0MGPFCbcmlWB+czM1NSqQrK23aN6Q799FVflKc99xhxBSLS5g5IIJmTaO+wuKMZCWeHlWpAQaAW7H5LTaAOUJH5g/fxHoDjifeLNzEgvuRg7RhID+tjXgtmRiSUHRV3DBANij81pJ/h6IrmxMvj5KA4I1npjuT0O/ic+eywBNNDAkXjuhL9qyTeNyrOQEypJex17frD5KqrrpKpqSnFDGxr165dNeH5UAKNvZaDBJ65thasxxVkm6q1GNBYQRnt6rs33iSr1h8uHW6fNHW6JJRCcB0Qbywt/kROArCI9KC4WcQ47GfIACLWK54YbCerz3POexic+xL9EkgNVinGgC44AGLBe6K9OgCLfQ7QOEOZGmh4HwADPIHsqPjSw9ITN+8HbI0A6/Anar8HiBiwNZWxkJG8QWnt6JJEOisf/rePSalirF3jE1MyPZNXCoxRtKzjwKnjFigLHR8z8Mw1ihmwCBbiIowHEbgsUinpKJeKUsDAJiITs0U9co495anPPFoc7S4VchF0Awi48wYAgoIAhr0ZsJoDMeZeG9dbH1AkqFF3KCGwtHVPeYZ85drrVLNkxvLlOpisTjY+Pq7GRexhC81343MLLf6+PncAwGN8SpMTYwqYQn5GJsZ2KmjGdmwzAILSVES2Txph+J6HtspJp50jjvZu6Q7ExB1KqEaEVrTg2EfwzF3UvQPgvnwHwM2MblSK1h3JSnJwrXSHkipcP+e4F8nP/u93uqGmCyXddpu3PNJgdKzIrp07an6z3f13ZuPuK1AW+vxjBh5+rI586AhUBx3JUJ1HNm+qnW/fvl0nZ9dMWd75d5dLq8sn7T0BiWYGxBNOSjw3tDBoLJgeB+BxuIKSGFyngna7N6rmgkT/qLgCMXG0ueQ1r3+z2oim80W1XGN1RqiG+tQpz3zn72MHHNb3MQVPI4C4wempSeNyKACiisxMIxwi4Yj89o93Kal2NHVIondYgomcdHnDEk71qc1kQYrzOAEPVCvau0o6/QmVzxIDa1Qe6vCGVTNL5IakzeWVcCIjP//VryVfKMnMrDEiIl1v27atYaPOlycfO/noMQePJXfWXjE5OSkM+8cOetclfyuOlg4FSwhLbjxbY1WRdL/4sdNYoCx0/CunPIAHIR8hHoFftcRUvyQHVgn2qp5ATA2c3b6QOJpa5W8vfe8cF0yhuHQ4h12D/X08YOCx1lN2DA5D/DyMwzceIc4ej+AnwqgX7x1Wg1+XL6LuAlwGGNgw6C029lVg3hd5ZX99FqqTGFgrkdyoqvPYhXzxrM5FIJaRLk9QMv3D4o/ExdHcJusO2ygPP/KojE9OK+VGEzvQ2thjBh57M/YIa9q8ZatKPMTNQH7bu1wSjMQklsrK0NqN0oR/yBOS7Mg6ieaGxIOvKdWn6jgAWXwYe83+WsiD8T2YD+L9a1Rb7AokatZpNg6yX+/wWrVQD61eL75wXDp7fOqru+H7P9A51RCVWkyRAZKdewOq/c++HhPw1C+6HuOyfde43iSOwX/92Cekqa1T4pleiaay4gsnpNMbVuMZO67LH1NfEm4DLMHYQ6x1eKFjXeU98JrS/gKaMSKm1RWCUdP6znDI9oTi4g4nJN0/qv46PPmpvmG1DTma2+U9l/29ENdkYptMnJONLaoHqe1/z/x+Aw9+Gf4mJrEMIwaLzFZVy+1jE6opYK94w4UXq3zj8oXVWYlj0h837oM6COr2j5U/99cLnDoAzX3P3yCw60imX+U+XyQlsLEw3v9krzp+cbye/7o3qbkDvXbnxLSxmU3P6oadmi1UQ2R3B5DViPdGHtpv4AE4O3buUtCgDaCQw55mS8b4hx3nuBedKo6mdkF7SPSNqCzDzrKOyfokPh6AsKf3sDBwLJAIE2GucPLi1OXcPiachHl9wUkvkZ1TBQXO9vEp3bC7JmcMW1OWNhc8FjgcDyp4CHKC2gCcyelZeXTHLr14ArUm82U55vgXq8EPL3Y4MyCdvqh6pK2/yVCYPZ3wx8v7lwYOALIeelUOiCVqkAGhTN5ISjBzHHP8ybJlx4RMF6ubllinQqkaY10HTx04y4fALgas/UZ50KCI8ARAUB2MWZZ8nnDKGdLc5dEdg0xDuAM8Hu90c0+45o1+4lIelIK613+hc2KLAJCV/2oyUdU/BmViYFAcXHO4UqDt49MyXTRhukb2mQ8ea1Q8yJQH0ODAA0RW1sEf88IXvUQNXNnhtdITTkmbJ6IGMfVGh7MSzq1SZyMm+ifBsziAoMyB1IAOzi3F5rlIbkQ6vBHBIg1F0pihw4/SEBYo0CT+Qt3chyh4rKBMiCWaFZL/S897tTia2oyW4A1LemithDLDGt7QFc5IeyAlscH10hFMVT3a++ag/OsF39KUxyoNRAA0RgzYuCOexx/W0h1QykTMkKPTLc865ngF0FTBZJvAGaxX3rCtQ4jy7GhQx4nfbWp3SiCWFl8srXIOkXiOLr+0+ROSWnWEuGL94uiJSmRgnXiS9ZAIQiD2fPw1U67FwWOBw8bQgLXUoB6xRBOkZkNHugJJVfNha/G+EY2tRgZ6xtEvUAFa1fgGoXm/gsfaZiwyjZA0109SF7Lm8kg+q2SxmtHw7suuELINiOPFvE7QEzyaGJbU8AaNeWnzJyU6uF58mRFxRnJPePAAkvmyTiNw5oOHx4DHFc5KVzAtrrAJiIv1jSoLSw+ulkh6QNpcPrngTW8zNqCqEZG1nQseUnvmruliQnLj8yow6+LPS1izX25TYyt4xCslKeVNegxxOfio+CwC8rbxWQ1Gv/Lqa6TJ6dMgJyaD2F/4s52IuXEzlsLsG7uy3/nXy7agmovZthanqPa+OQYIvcXugxaWRKMdklByQHqCSenoCcnH/+NzUiB8ioSBKdbQqDbEjpNDtm/gqWZgWqkc8FjgkFNdIaeKRDwCuMQgF9sOlzA+nRcu54/3b5U2T1QFYvhwS09Yz/+6F3XxxTtU7ssL1Ur3K3g8VfCE0oMSJKQ2kpNuf0IcTV1y++/ulImpvIFNuSxTUwTbs55QnX2hPMuAR4qzCpxZ/cFyLcMR+w4/T7g2wnA4OyLp4Q3iaOmWgXVHSocvLq5Q+gmsST324AM8vlSfoTzJXqU8gWS/BBIDEiBUNtYrTe09ksoOKpcgMXJ21oTFjI/vlEplX9nWcuCpFKU4Oy0lSFwJI7jIo9u2K4oBzzmvfr20e2MaUgBYrJOP+GEEvUNllz4+r4Og/F7x40ROwf56xRfvFX+8X8KpIYlnRyQ7uEYcrU455dSzdM2KpXI1ybAsU9MTjzHlIZeqmFfwGGZluabIF758jTS7/Ep5AA3UJta3WtAAoEYWSI/PhXvsKcvy80bQfVZ8yVwNPF7kzFifRNLDkuxdJYFYToLRrFqhP/rv/6EAyhcKMpOf0RyVfWNbCMzVSg8IwXNlnoKUC7MyM0nIY1kFZSNuiTy8dbtk+kdUQFb1MZKVVUc8SxztHo1NgY2ZAKdDYZIfr9fQJ554RsEDgLyal2bAYylPJDUo7kBceqFAze3y2zv+qEUjUHamNEN3z0M2qu4J4j/mlgeZo22Vi1V2hV+8olmMhVJFBeU3X/QOdcqhihPI5AympMkVlNyqjSr/ODq8TwrNj7n13FAeqI+OBvAg84SSg5LIEZGYkHhmUBzNHfLMo58veQLIRGRsckLrHzWq4Ss5r/m2oDYASFXvKuVpjMRXJlUpa0qsVnoQke/d/GMFjoYLpAbU+mkpDbJOdzgjycF1CqjlSe/jlSociPvaHTzIPLAtf3W4/EkFUAgnazwr7d1eufKqL8hEvloiZi/K48wDjw1lnG9EKqmQTOUG2BWJ+SA2DNKjKU3vNXaKAzFRT/7G7hsRgTlnhnrb8ZH1qcDsj6NxDYg7RBx4n3hCKYmk+qXLG5RoJicPPLJVLdAQBP7IUuWPmHPiy/lj3ReiRLuBx77Jsi1DfUq1PKGx8UkFzt/9/Qc1RQZvb90I+OTC7r6wB2JO6uAxoRpzwWMA1C+x7Kh40X5jWenyhcXR4ZQLLnybCRyrpjkDFlsTiJRnW63D4qLxuGLwEMBuhWS85USzRXPDmhf+JNU5EABZ6jdQzxtjvHcHTzA5JAzUdxsb5AxEpCcck9/eeZcJo6lGg9rsFiiPpT6NoLHny4Cn7tsCkZr5ICIXvv0STYmluAAWZSpFYCI/OLvuyd9l8xqKY4PEdgdPNLtKPBGep+xLv7gjKYnmBsXR0i7nvOp8BQ9FFmBRFjD2CPWxgGk8LgqexjdxbqnOAw8/ovE5meF1avyL9q3RZP8nwXMwQQwoAA6x4BZAdZkHthWk4kdiQNxRkxvmDCZURmonF6y5Tf73Z7epfNNY2kWfwHmxr+DZNWayHy5401ulrduvQjJ51dGBtdLqiz9JeQ4q5V0aPL74oHSHcxLOrhJ3lJIyg1qoqjMYl+SwsfucduZZFiu1glK1J7DuLaCN1SjP/BeNwFwnV1CeHWMTEoqnBXd/qztsiiClhqRHa9sczJ33RP/tRcCjgMY1NCg9sCxkniSZqaYMTbs/JoHMgLiCUelwuuTWW29VvKh8W6nMqZE4Hx88XhI8vMHaf0jf+PBHP64xsuRVpYbWaSxJRygj3jRVshb3XzWGDix1/niVmZa658bXFrv/xvcsdG4UFtiVHQjPCNFsKtbFAKjDl5RIbrWyLuxw2ORc4bQGjxHxefkH/lFmKNtHwHypItPTpiqrmmg0BggTjhlzwGM8VdAXqbkfrFqOBQCNHw2L0h8kpWkJtvSwOKN94rbVtBYh3eaGbezOYsfHL/XY1/tf9vPJfnWMqq1H8/bJoK1n0SIk64gPCPLP3DGodiBvJCPNnR7ZNVWU6bzI9KyRc6coTUwgEHWkG0al1EB58rMztXrAoEqT5zEQVUR2TRflm9ffJN3BuAlawkueHBQ3VbRSw9JTDRtdeucMaLQg4abzhwk5ffyDZ/5928fL3b8Fj33//KOXEF4quJLXZYeCB3aGJmbB078AcChfMyg+QoI7vPLJz1ythGJqBq+7Cd+qaJAX4KFyPYPzBvBQSBoA2T8ql+M0o74xlOdFp50jFB8gDpmij9ww4aPB3jXiqpZeexI8C2+AZRdfN9/Cn2VOl/38fPDUgLM8ePxxbD+DCqq2nrCsf+qzdb1n8hgLG3KpFDCLgEe96JTrr5aqt6o5SXtkIVLmg6R7wMPNkDrTFc5KZGD9isFjdtiTbGvheVgePAt/jvnks9U4njnA2TPw4A9zNDvlV7/7s3GYjk8blyYFEpcCjwnwMnk9UB/Ag5AM2/q3T16pgUQUqeYiMQpSsNEV7ZVQ31rptpVEl5R57A5a/LgY5fprf95QjsXv276+2H3a1xc7ms8BlIXG0mzLUh6E6kh2WMNVL/37Dyl4ZnAloKYXy1KZB545Mo/1mlu2ZT3nCMqHHflMcfkiJr88itvflJalfKw3PbKswGxujp2x1Fh85y02qX9dzy9177y23P0v/fmFgbMyyoMdCNsPilC7JyzrjniGbBubVrFFIy2IOmzoF2bOG2Qeq21ZkzRJfODuoUe2CVUYIqk+raZO7WJTwHpAgmR7rkDbsqBZ7Abt68tP4HITfKi+bhZ+7+9/6c/zvYH43FH/rQbKowC1qrtR333xIbUDAR4qsvK5pk6P/ODHt+r6z+aJn5BlwFMBKpVayTeqdpEg/+Wvf1NL2VLZQkvvJ/sl0rtKk83CfWukPZipUZ75ZNWAYaEbn1vliws2ADpUF3/p65p/3/bxnt6//Zw9rvTzgXhOwRNsBFCNhdXBY76vUeakYDkyrClcTksEnN2kK3/0k1cqeCYmjRI1n/LsZueZnBhXPwbUx7KtF592priDMQ0gohoDi2xuDpV7UNzJIR3dsT6tkG6rnlNCX+1BKSyYCa3uqd7cRE6autwaS0t7IoYrEBWKOBKFSAAZxR1J3SGQHkMWz5kbX3oRD9Z77HzMFWi51vrGwT4W6x2pdszJSDTdr4mRw2sP1+xOrn2pzxOpmRxYrQur4RTNnUKNI0qrULfZHUxImEr3oZTEssPiJm4nPShOiodrnUM7dwuDpzOYMrlf8ZyWMKb+NTRnerZo/JqamkOWRT3Tom5hLhW1wDbAIRAIgZn6OoOr1oovklwWPADJlx4Sd1UTQ50nzsfU1suZG291quB96tnnym3/91u598HN2vAMU8A/fvRTChALFjIuqNMHiCi5drCAsZLfteCx9hcDAgMeyz4o0E27JVKA6cjT7vKIN0SZ3C6JqSLSX7N/LfT53lWHKXDeeNElqkr/6Z77ZdPWHfKL238vF73rUml3+cXpiUgsMyT+aFaipHa3uyU7vEGCKRqyWIHdgMeDjS45KJ6EaXsQyI6IM5zSavqdvoimiW/ZvkupD5kWJkB+EfCQAcpQ4NBNr1yRO/70Z2lz9ugXEbq4FOWxpfMBDz0a0MjgoRY8kEJHR4/cfMttgvkAQXy6YBqabdk+Ljf+5OfiaHZptoUt7ghoAM+hHkC/EvBo+ZOmDm3n9IrzL5AL3nShPO1Zz1WPNpXtoVJLgQ8bG0Wc3vDWdyh4mD+SLTmiFG3aOib9wxskEM1qrHIiNyLZoXXiaO3ZDTwGOI2cY1BCvasMeABynCyLdrnpR7dU5R7TOM9QHUN56PlaozzIO7MzJIOZbiuwrf/49Gektatb+1UtBx5/ZkS6KQWrvRyGNY8a4ZpIQ4pUtvX45aYf32oMUBgoSVHeOWaQLSJfv/4HmnFBRVDYFSk7pO5QXhYArYQCHKz3LA8eyp50aDncB7ds083D/SNlXvb3V0hLZ/cy4MlJsn9EF/SD//wRnUMqrvF52i7snJhREO2aLEsiMyxuCmLGe5X6BJOIDak5lMeCtC52DGr/jGBuWDNPTZmWdrnsin8w4CkUpFQpSZnkwEpRz+mDVgMPAhG2HltbELZ19svOFXcgvEeUB/Ag9xCuEUgNaE0eePLLXnWB3iA7ZesOA5rvff8HcuHbLpbPX/1lOeuVF0irGwv2cC1J0LKrQz1pcDnwQLFJuPvPz32husgz2kaSxcf+tv6Io5YED59PUjalqU2OO+lk+eSnPyvvu/wD8vFPfkq2bN2mCzwxXRZk28994RoJRLLS449Lq9MvA6uPEG+1SUvjdbppDVWTWQelE1lzYLVmnRKV2Nbjk+cc+0Ld5LNFCxiO9rwBPFOT5C3jSZ1WoRnwrN1wuHiCkWp3vKXZlmkZNKCUh5ZBsC3AQ9EhJu72P9ylE0ehISbt6GOOlZbWdvH5A1qY2hWMq4wDy7I1aBCcAZPtUHOwKMtyv9u4KOzq+TKLgqfdJXf8+d5aAxLmgGJYzPP5F7xhWfD0BKKS7hvS1paOphZp6+jS+YvG4rJt+y6ZpVEy7qSiSFdPWFyeqAysOlxjlrur6d6N1zkfPL7ssHjTA+Km3mG6Xzq9QfFGYrpmtOgsUuRCgWPAQ6fpGuUxfi2Tk0XkGHaeaCIl3lB0ReBB5oHqIPMAHrQtBGYKDtGDkz6gE7MlvcFf//b3evP+QFDSmayksqavJznultqgebFoUJ2/dplHwdPULj/48U9lKl+SyZm8TFXbICGMPueYY9W+YtnJQuCjyHkyNyCeQFjbKg2NrJJINCYtrW3aeBcwPrBph87v6We9UjyBpFKe7kBSUoPrdmNbFjw9ySHpoWhU3yrpjueEQgmBVJ94IglxtHfKn/9yv35nI3g4nwMeK/PQaY7d8Ns7/qAXijCn5furKR1zVfWqxI51Mj0iPtT2mCk6RHwzKnqzyye5kbU1WWdsOi/Xfud6aW7vlP7hUfEGghJL5xRgyEjYGlDxiTexFKfOtozqyzVYLabxaMIQTDiCed4GhVuzvf28UVvNIhlKYaiLfb1+bPz++rn9XmOv4nmrltep1Nzv6PSGZGjNYbqToRAMEiev+fo3pLm9a1HKY++VHhz0S41n+iTdOyBOt1eSmZxAhd7wpgtlasZUoAVEp57xcnG0uKR/9DDpCaVVduS6oDwWoBwtgGBfHuTKNGVaUHQyEusdkuaubrn2uuur4KEtOdTHjDngwejDHzUFOfv6t6+XLk/ItGDUrnlzVT1DAq0tg9doejaigUdBEgDpndA/qsFj2cFVOmkUV0Qtv+Y710tbt1cimT7xxVLV/ll2QRZaiH4Voqn1g70k3jukxayzAyPidPu0EHggQYQjdpSsjniuTyLJjL5G9GMobmoXYwPp9MYk3r9W2rxJifSula5gRikcrSYpyUZBcWoo0q80O7RG7VyJ7ID4IwmJJNLKOhKZXu2UnOsflGA0LoFoUrjPUCKnoSu2PDD1Auk72umPayvLNUc8XT77xa/K9d//oVx48TvFH4ooIACJYXl2nq1dpgrCuOmPqopLLK39x+KZfpWD3nLRO3XNcCWw8V9+3mukzemVWHZIKLWi1FtVcza7GV4KhSugqna75LD4UrS6NBkxVKx1dHbLx/7zSl27QgXwlEUbBldDUmtsS5FDzk6+oBL8v378P6W12292VJWP1364FkJgKQDyzbCEMhRUJNioT7B6xrFrtHZJbnBUL2CqZMDzte/cIC3dPi0154mhptYtzjbvyOxkO4GmsYdqbzSVTWS1erzHH5REKiPxVFpanC5xtLSJo7lVHK1t0tblFEdTc3W0aDtskhRTfaPij/VKJLta/KkRcbiiCiA8yspemjs0Rht7DII+Kiuts2EXvYPD0tbpFIejWTq7XOJwNOno7HJKV7dbfKGolvZP5Aa1MikbyNHaranXqaH1WszT0dylGwrti2YtZC90+yM6z3V2Vb/vGkWM51SF5hptIxfaCnCdb77onQoayzVeeu55mqRAY1yoOCIE373Y+hmqRKjNiHhIEMREksTD3i6XXPZ+3fCFCtXfiCw1Oe3zHKMGPvT7pl0z9gS6Ba/kxzXgiLyg9Ih4Y1CTXvFB+ri51i7tMY6WtS/goepGc3dQOwUne4dUFsv2DehCApJU/4C84W0Xy9XXfENJ7bXfuU5u+P5N8l9fvFpe96a3yMDIagUClljA4wymxR0bkL61T5fmnph4olm1fD/lWc+TZx5zvI7jXnSanHzGS4V+D21d3coi1h62UT7ysY/LN775bfnRj6jnzcoAACAASURBVG+R6757vbz9He9S5YKONLR7zAyMqtUYq3B29DBlG+TvQzlPPP1l8sznnyAbn/ZsedGpZ8o5575SKRubZV/BwwoSxHfmOS9TexLgQe4k6nM58DAX3sSwdEdMdgU9PwDP2ee9SqaLZVkSPFiWQa4NAnvRaWcr2Vb5g96dSyAX8BCV740PiCdKXRhypLNqgne0dEr/yJp9pjzU/smMbNBOODhqWaim1nY55dTT5Ve3/0Z3x66ZvDAAKjLFVL4gs6WyPsYu8v0f3iKBWFY63FRmXS/tvqS0epIS619ntMKWLrlv83aZLFb7t1MAu2RU6c5uj3z1G9/S7+W7x6dmtDB2oWj6vmNvufHmHylrox4j3XvoqgzLivfjVnDKiWecKxMl09bbhvb+8a57lZLuL/DAOU4/6xx1fWDR5vdXAp6eKKGsIwoeNFytqNrcLs96/guWpzxYlpF71BQtIkc9+xjl3TR+xWazEvAQpQ/bCtM6OmF6I0D29wfbomBChy+mbZXoOZrM9cttv/w/5fXEHWHanCiU9Qh4pgtFmZzNC221keFosTiVN0Bau/Hp0uIKSqxvjco94dxqY49q6pAHt+7Sydo+Maug47vOfNl5wiIDGkwND2/dJpOzBf3eR7fvVMEXJ/LEjCndj78KazoyHwDCNeFo65ZjX3yG9oOfKpnQXr5786M7NGphf4CH9cOhfdZLX67gIf5qpeDxxJFZcXj3qW9RwdPulIHVRtlZkvLww6joCFxM9uj6I5T0Ejlo6v0uzjMb2VYgOSiRzLDKPAh3gKd3yAjM+8K2UN1jfas0mpFW0r+4/XcGFLNGRlPAlKXm+mChuQ9UYo4M+jDwvoe3TUhQnZb9khjcIK3uqPZ0wB5126/vUPCMz5Rq4BmbLqh9ZmxqVquK8t0MAGl/h+/fMT6ln3lkx3it9jSLQPFyZJ3nnfgSBQ8F3SiuDfXBYOoO7LvMg6KjBKAi8opXna9si1YNsK2VyjyN4EH2xFCIrWcyX1yabcGyGh2i/aPrapRnJeBBYCYnCJkHkzgyD5oHMs/qDUfopO4LeNAY0FwICwGQr33jW0xH5GrXXzS5O+99QD5z1dVy4cXvkI9+/BNy++9+L7vGJnRD0A+DBYYNsXjvufxD4ujyiSuU0SZpXG97t0/uuv/hOaABCArMai8H2N9v7viTPLpzvMbCoDrbdxmrOf46fHcf+9RnlfqY/mHrxdHilBecbCjPdKkOchqu0T9rXykP4MHAy+Z/7evfqAKzCteaWVF1hlpNa57Cg8AM5YFtQXnUOR1KiJu+Xh6fjM/klwYPVMcWM2AyAA/NUbkpavwux7aQd5B7XMG0eOlbHqaUR58uyFHPOnqfwYN/iyZmyBLhJPaNVrnnvgcUEJ/5r6tkZO0G9VSjvXgDIWmvakXHvfB42bZ9h04qzVRmquaCux58RJyBuKqx5G4To432s3nbLqUKWjW9mnIEGKAUZ5/7Kknl+iUYTaj29fRnHy3f/+GPlRoBTErPcARsUJUMtZC1SUtEPeInnnaOwLLGZ41DmPc+uGmzWvH3B3gmJsxGedOFb5NWp+n10ZiwsJS2hczjjiGi9Cp4qJ0dzfaL0xeQqUJpafCopF4NxaC8HDYLUm0w9lEsejnwkMra3E3/g7XS7o5InKAi1N2mdvnpL35dy8KYqYhc/s8fkSanR7r8UYnTQ5MeUlV1fTFVHSszXX+RI9C2AM+r/+YCOe9V50uHs1ucHr/QgzOOwdEflFzfgGRzveL2eOX0M85U+xV+JDzQLC4W7zQ2HChkul8/62jtkL88aCgP7Gj72KS+9+af3KrAxM4DlejxhyWW7tUjoRVfvuZaBc3OsQk98tnxmaK8+30f0DmgPRRq/wtPPkNBBbC4DsDz0MNbpMcfUq1W55iiESgcyQEdqkbj5MwNS0u3X7N1O9xBbeJL/9WmTrc847nP181Bo1oo0KYtW3WO2PysX1e1PcNS4PElh1XmcYWp44wzNS6x3ICaPu554KHlwWOLN3FTlvIgMJsqGEvLPM4gQVxrJDmwTmUeR1OnrDn8KJnIV3QB7G5k4iCHWDC5wFBmQJzB+LLg4YYI8Wh3B7XJW7qP2JgW6fH49IiVFjWZDoIOR0vNDtPU1CQjIyO1zFe0Iq5llg0yvEarRQRTvRKKp9RO9JcHN9XYESDYMTEjJ59+toKL+BsMk1h5A9GURhtYO9bWKnVj7mBtJA5c8+0bpNsfFZruEpJy/ALg2fTwFnGvEDyESpDqzffZduEACQD/6v9uV1vL1LTpr4XA/6rXXyiOTq9E+1YvufkBqNW2LNvityx47rrvgaXB0yjzMAGY0kEuqrrN01oMuQjMpLFCfVDVYVuODrcc9ezn605jAViw8XxR1j3lKGl3+xU89BHtpMXA4OplwUN4BinONCsjOA3Kg0HwjLPOkev/3/fl/k1b5OFHdshsoSIPPrRZvvq1r8upp54mHR0d4nK5NKUITVKLdlbZSm4E8ND8NiPRZEZBuOmRRxU8xMoAHsaJJ5+qFmSoTqp3UIFDdCVtGzMDq9TK++WvXqO7fzZf1CA67vfehx7RLFtfNL0beAAx8smmhzeL2x/U0JWlKA/Wb6y+NOwFPHYkoWpNbXrt1NUZn5jUXmds0ndd9gEFT4iiokuYWix4sPO4Y/3GGR1F/EjqHP/hrnuWBg8yT6O2ZSnPSo2EyDsYCX0UjU70S4c7JMee+BLNNkVI3bpzXIH0yK4JpTyOLrc2oQ1nqeBQ7168GNviBpELlAUQetnWKT/56c+U9M8WyjIxZVRnKpyPjdOv3fzdfPPNsnHjRlUGityj9SuJSG4EFT0u/nhKApGYGhwh+bxnfHpWg604f9l5r9bdjZsDKzVOSqznNEhDrmHxLnzrRTp/OJRtHw4cwXjDkf0M5Tm9ToWr4Hn44YeVzRL3tBR4UPlpiYQoQc95rMwMWBey2pWf+ZzesNWWp4oif/Pmi3XOWj3RZcED20JgBjxQeZoDuwIRcbR1yL0PbloaPDZrgh9HYLYyD2EVja58qA83yXMspnEW9kmsb614Yv0SztBxJS3RzKBamLF5WMozUSjJjqlZecNF79Qd7+Xmc0PiCiWWpTyZkcPUP4T9BNP+fZu2KHCws0ApGWMTRi3nHuxfIZ+XyYkJBQ+bgwxs3gtl6B1B9Y8peGKpjILnT3++W18HNLwH7enk087UgK1U75AK6/T5TPWPalk9FhDwvPJV5+tPQt3yxbLKNLAuTzCqbJZrPuHk0+rgKRkH9J6AB0qNtgnVATT0mne0d8vwmg1KxSjOZNfvFa95vbaRxDaWXbVxWfAQCO+JY5bp1+A75EDA4w5FZPv45NLgsY5R++NQHkIpoDwrkXmowIDMA9vKDK2XFqdP+T1e+RNPMTsOtoW28anPX60CM+ABOABoOYEZOw9B8vSRuuS9l4u2n6zacCanDWgmp8vyk//9hfzrR/5drrjiH+SHP/wfwxuoL01AE5SnYizCFjyeSEyCiZR4/AHpcrrkvvsflOmqAdBSKVwICMkI6tiuoDgsII11NcKvpVPe/Ja3KniYP2xLsCXaFEGtYHeY+gGP/U486rx3peCBbVHNC7bN7wMepTpNHfLKv3m9ftf4+Lge/+nDH1ETCe/VxIJQelnwoKqjbeHbQrMFPM1Ot4Jn686xpcHDnQMg61Xf8NRnKMoxMq2E8ihwYv3S4UX47Zdk36hklaS3q5AJ69o2MaWs6+qvf0scHd2SHFhlqE6qb1nwECCG8A75v/MvD+n37JqYUhcBlGTzIztlcHidOBzt0t3jE58vqE7Lwf4B+f6NN1YDuOm1WW2eWxHJDY8I4Amn0tLc1iY4OG1LBKgHAGCxoTxdbr96srWzMNcbz0pqYFQ3GBrl1V/6b+3HAeWhYR3XhBymBsAlwbNJPL7AsjIPseCwEpX5kEciKSFMA4324ksuVdBg54FtYudp6XJLZmiNGglJlVpO5oFtAR4oj4b+IuS3dIg/lpBtYxPLgwcjodZhFpFnHv0CdTH0hNMmCF1ZlWVZJIzNZVv8KJJ6dnSjOhl7QqSCGM+s9W2x27dPzsj11G9u7VLPbWJglXhiJtnMxsvADs0wv8E59gpaMTFpNLxlV7NA7F7Gcce/WDz+qKSzAxJPZCQSTUhKWVGTRKMx9dvBsopsEFWVK5IbGhZfNCbRVEYy2Zy0tLTI3Xffo9+n81D9jWNe8EL1ykeSWfFHkkJfcygquWz09Gzt6tHOzlwJdRutzHPT//xYmtq7JNM/pIHuJ5x8qoKRecBtYijPJqV6y8k8eOihPFBohGTYpXrVW7rkjW99uyCoW5n1tDPPVlkL4Zp+rgjMRtkZNBkT1ZI4VvRgLQmnwTlK2Tm02kh2UCkP2TPKwhvCMWyNnjkhGcgH/BVLIq84/3XS0uVVDzm7nlxmI+vYjEPKdrADTUorgWAuhObMqAILlkfoBGokHm2Mc1AfJu66G3+ockvv6HrpRt5JARIbX1I/WhABKmJ42OEDo+ZmuCEmHy8yC903MKwaUyyZlVgiI75AWEeC+J5IXAEzNWvYm06GiAyMrBJPICTJTFYi4bB0tLbKfff+RedgulpaljIjN/3gZpWH2juc4sXGk8hIPJkVh6NNXO6AxmArIEv08izLDCxSRN53xRXS2tkpsRSdh5vkBSecoPefxxWEPJWflc1bH5FuX0A71SwlMPviOV1Q5tWDgkE2i1rbO+St7/hbwUFrQzLOOPulCh4yNghj0ajOWryyybPTALAaiEzJHEQD5TSxrMQ0nKZTnvas5xhupEWd6gVOAVAdPNUtnK+2uH79my6S9u6AFn42SWMWNOZoigXVwUMMM20fNRxVK272arYAmQF9Q6M6WRjGECKv/e6NSm4x+AEeQLIUWWW34UknNAIVHY2IkjFcMrUSOZ736tfoa+3OHgURxsJkFrLequDF9sKCAWKOhIMOr14ngUhcEsm0xCJRaXY45MH77teIuAIthfhiNlOxJHfddbc8/9jjpKW1QxyOVh1r1x0u/3XVlzSIHcDMkL6kdh4DnpE1q6Wlo12GVo2Ko6VZTjvrTCGFbrZUlHzZaH4PbdksTp9/WfCwgYixATyABnlH2VZzp4KHSy2ViLcROf3sl2qwHNZtwKO1lHYDDyAylIi5xxCsFVBoA5EZ0KQHjKYvfslpOg1LZowS3MO7JieNxH75B/9FwRNMQC6zDeXJFgYPaRwUeSJzAjAQS6IqaluXOkaZVJtn9K0bbpJOjH25ISXFeH6XA0+qb1gT5Fo7XXLLrbdVY4AN5SGQnDSeY48/SUM61QaEHaipVV70ktNV9sAbzjXYI0AeXbtBXQ1QJr/Pr+DZuuURAxocjbN52bVrTIscUWaNBXp020659We/lN/fcadMzRRNv/Kq+r99bKxGWa79zneU2jz16U+Xbq9Xz088+WQZn56W2VJJB9fz4ObN0h1YmYUZ8LCRVFiPZVRlx3IN5eHa8Kgj7J/98vNU5rHgYW7rmRKG8mjCXwN4iJzAjoYTFxeQ2tJaO+Tid16ycvBQh44L+do3rtMyY4DHoxmby1Ce5JBSHTQzwAPPVDW2tavGatjtsK2vfvO72vtSG9eicqqNox5fy81afqw7LpFT3xPWXQBx3IkvVja0bYfJaIRlIAPh9b7rLw/ID350i3zzuhvkwc1ba2Dht1ks6/mGEhELHI6nJJnOSSwWl9bmFnngvvtlllp8TAJDWSOhKsgzVbDY7kAVytCUNW+K72bMlgxlS2Ry4g2GpavHo7HaHa4eOfHkl9Re53oZj2zfKd3+8LLuCdgWVl8AAcXB8KjaVqtTZR7mgFgeAvle/qq/kZYujzEqLkh5rOxTDUnVTd+nmhlx59qjveo//Oznv7Ay8JSLVD81O+yOP90rrU6fsq2ANltbGjyQxmButLboAIJiUMTeDK5ap6DB6mnB0+r0at+KaNbkdgGWxS3YOXGHE6oqo/oCoH/5t3/XgCwmDVvM9mo4xLaxKSGEgt+x41vX3yi7pvKavWGzVXkNMBJiGoolxesLSGdnlzz00CaDGFjcTF5I9H/r296u6S38Fuxy59h0LdWFIhJQsZ2TJgiN7117+JHS5vTI8JrDxBdOSI8/IgTFHfPCF+k1TcyWZapANklZtu6clOZOtxrmlPou4tvSmOh4VjVgpy+izX9xUWDnecvFlyhwKUTJNQIeAu4RslVTTlk5x6QW16mO2aQ699VUKUCKLSmS6tV5xhCr+2heiRU087rMU66YHccElUQmpksSzw6JJ4zj0AjM9cqaA9UCiVWZB0ce6RsZMihM43hCMAEP3XUJy0QUR97B6nrtdd/TkAFCNtBY1HaxJHh61bLs8mOt7VX1t7PHK5dcelmNkrBoYzMlVeEJecCnxvH1F75dtSOAO1kw3m6uhWpn6454mhr98Fn5A2Hp6OiS++57oAYeS3yec/SxEo2n5Zaf/lwXyarwHMenirUYott+/QfpHV4nXo0o6JcuT1hjpuk0Q7HIM172ar0+fp/r4Xj/5h1CMcmaC2gR8ESyQyrzBGlCW7UzJTQRsEMuePNFxihZpXqnnHGOzr0qHFXWZNjW7hTHas3ELWvUY9+oskas6C2dLrn/oYeXBw8yT37GpBoXqkLlc449SZy+uAKlETicNwrMWhuG1A0tdDmgnlwQTBys0x8RfzStC4czkiCrH97yM2l3eVUj8EdTQsulpSlPr4ZPICwOrjlc1eQ2p1s1OaIU3/mey+SH//tz+cltv5Y/3vOgfOuGH8gFb75YLdzs6tzQGnnpK18rp579Cj2eds55cta556vfyRtOCpkRaFBNzW1y/wObdPNY4LCTMQM0tXRKh9MjzzvuJPnsF74iP/rpL+U3f7hbfvXbP8mHP/Ypef4Jp4qjzS3t3SEJJfolRr9VzPyhtNAoraMnLCPrjpRzz3+TnHDKOXLKmefJGS97jZxz3uukwx1RoXYpygM7wc5DaCkUBwu31bYu/9C/VlmmobZPf+6xSj1QucmGoIJJndoAICsW1E0hCNZoWlTygG01d/ZI3/AqrQ6H7W9JgVlZVpVtWfC8nL6hPeFlZR7AQ7oNP67Cct8qJZmEX2LvwRP+5we2qHWZHbdjYlazHzt78Ijj1OuoaVxG3rE3Z+Qn5B7Ki0DN+D5YHRQLWwvmAPg7bAEKht2F38Opy8AXxrGtJ6CDggFkhfAehE+oI+VOAuGEalAPb9mm2hOgYcwURM566SulxxsW3BPNuEfae8QTgqr61ZwBVQEAid7V2tOT5mi2SRqd9nhMu0aOzV0B6XBHpTuQkqZOvz4OU9q/qjarNX+RkAws8qQFadEICke0uaTLG5Y/3H2/skPkOCjw6Pqn6L2RAwc36ApnaiLBwu6lXtW01I9JO3Ot5tEuzzvuBGPiQA5ekm0R61KlPOy6qdmKXHnVV8TR5JRI1uRjUTmc4UWjgrwiSFNNigj9pPFz4cDDlG5Uyz6lGPij/uPz/12NMzYk+677NqnbYt3hT5HTznmFHHPSaVroAIOWpWCQUqzK+Nf4vvqop+oAAIZxqO7dkTShYAxZql3ue2CzTphWjwU8JZFTzzpXOnsCEk6QToR/q08HTe/DKTrpUaJ2fpna+fWOl348d9MYu5dhKYY6YGFmHgktffaxJ8qajU+TE15ylvzPrb/S8JId1EsWkV/+9o9qQyP8FTAoNatGEDbKlGxyXaPq3EF58IOxQa3z+UP/+lGZzpv6PEuDR/0SFbUVIPPAz++46wHNdaa+SyBl5B4LILX9xHoVOIAnlDJaE+yKCwBMxiqaljZ3SBvYwhTh8/c+tFV5PgvDDSPgXv2N76pZnPwmm2pMUSdCIglosjdbB1AjmPbtHPAFoVqOdtm8dZfKe1wXAi07+bRzXimdbthRtfJEok9joMPV5Eao7tzC2Hv2uNEAC/uug8ae92myIxTnHX93uZEfccnsmKydc52EzJLSg1yEyg3lSQ0fphUwLHDqLAvw1DehK5TSLA82P+IBig5x4ljLMcQuCZ5SoaiqaaFQVJ5PFXAWenjdkVqiI5JbpZ1ToDqYsAEPPixYFtSHHQivBDC6wEkS9SiN0qeCGDlXwxuOlJ0zZQUOhcFhYajX3LiWWGl2qdYBxSFvnUnESWf6sluXxf4/cr0uX1TZ532bHtXr4prQiBC6TzjlLBV+udcwFc+q966ggeosoI3OlxGXelynOpZdW9DYY59kR9Yru3rDRZfIeHVtWB8GUZG4bGhlhXxJ2AY1AgY3PE0cbR5JDG+osS0LTrMJ6+BBWMbOA3ianV6tOoaCo8rBbm1DTU+SmrZljYSAB7aFtsWFnfWKC6TdE5Vo72oJoU1V2+4AHgLdNQuBUE5IuYLHkENAA/tBCyNvCAsmz+Gs+8SVVylgWKCdE9N6DuVhEaiMwZFhW2ubvKO624IJ2J+D63KHktLU0SN3P7BFwTM+axaFOTjptJeJ0xermS0oWaIKQ7UIg7kWFn7vBwWXzOctYBqPxIYnpM0dlPd/6CNCKK8Fzq6Zsvzo1l9pqhRsl8hCKErv6o067xSd6Aylq0KyBWedZQWqRbvY6ACIcNemLo9+H+tDfpoqD0vJPIAHoRkTN2/GfgFl+OLXrpM2rZszouAxVTMN5QnhuifSMIq1s1fJJRcO60J4JuuCYt9UCksNb1CeCkmlDiH2miOf8Ww59oUnyLOfd6xseNpztR87PdnpkmwLOnG+PxZnqYWFwkGq27v98uAjJm+Le7c7/IWnnCPdwVRN64R1W0qiMmDVqKn538gZezg8hL3MiZNqBA7nRnbsCSdlYM3hcvQLXyxPeebzZHTDU2Vg9WEaH02pY/LquQ/Uej6D9te39kitXDL3+6ssi3IqcXqPZpVjkGCgdQ9buuTD//4p3dQ7xydXDh6MHFhS4flM4P1bxtQ9AatC7qHplxWYoTwqLMaymmZDfAtWUAseGzhPvTsAALI1Drd/VJyegDh7POJ09UgslVUfl+2EjJxDWAAOWcAzP56okX/vj3OujZ0N9fnW//sf+cM9m+TXf7hXfnvn/fKbOx+QF515nhZIghoq2wY8qh2ZEAaAaQCASrw3Y3nwwGYQgtES3SFSpjOCsRArM4+xOKNtxvtGNPuVllbxgbXiDGUk3Ld6HjhNCAyxSYCHI9+Pb4uMEmSr3915r4JnYnp2efDwjmK1w+0kckilTrZPOO3l0u6N68RZ1mXZFkIjKbz4sfQiIINoXtUgMvV1pYekzZ+QNNGAvqh0B2Pq5AxGYhKLJ4Qj6jRprsg7th4Pj9WjX92V+wMoC30H4KFzIWnIyDWdHlJluoTWUEQO0NADisvmATzcExSVSAKCp7wcFTS94sF5ucfDVsiwbGV3yoMsQoAW1l/cE9h6ABAedoDDY0Iw1LYWiGtevKXYC7EtVRIawMOakUvPfY9seKrKUeTCgQNilJYUmKE4U5OTal21AWGY3KE+n/niNdLsDKi9B6rAJEKu2YmwFyaYch7BJKoyFGNQBxev4KGzXHZUOvxEDY7oJHR5gpLI9ku6t1+Ik0n0r1ItC5kH8PA7HLVOD2aBmkxgZYP9eTR9N41AbNwluVGqiFLZLKoAhuJaqss9YXyD+gAegERdGy/W370afNao1czZQtoWBj9MIKnB1QoShGKtghE3qjUqPLlWtrQLQGj3xSU+sK4mLLNxzPc3yDwJKr5lVV4FUDhaSRlC3tm2y3R3JCPDgMdqXfMEZo0irJbPwL9FjAyOduwdoA8fkJZ8Ja4kN6pFnKjB7MuYKvD2ouC1Ziws1NrXjbRvvMSc28/sPnELfw+/tz+Hva7dj7sv5uK/C8j3dtTvZ6E52P267Dwvdqx/H9frhjXjgsBxrSy3/jpUTfPRvH6NW8Izz9qDAeRfQnjn4sOUWalpWwu9aJ/jS0ieJywRgbfNE1Fztz+3RtrD/eJOjSq6F77p3Sf/yfcd2DkBPFBLwAOIbPk/KBG1s5FRKe3X1dUlJ554ouzatUsDy2BDBJjxZ7HQeFwxeG7+0U+kqd2pGZsIvpTO9WVXS0ekX7q1EDRe9wM7KU/+3srmWylPrE9LHSvrSg0qBeLcj1yZ6le50+FwyLe//e1aRdzFQGMBtGLwUIRx3cYjpQNZZWCNIriLvOaBDdq8BJnkycVc2WIe6Hmy4LHyJ2vVQ3JmYkB9X4CntaNLYrGY7NixQylNY391zi1gGo8rBg9Owk98+nNqhcXzCt9s9SclPnz4k+A5xCmuYVvIYqbEHKYPU3Op+piM1qYWee9736vA4R9FEwio568RMI3newQe4n9JBsSzizTvpFg07oqqkexA76gnf29PKJ0RrNVZGjcZEgjhOERZT2ot3nPPPQoWsmgYFjjIPY2gsec18Bjtqv4mq5qZN1Zkqlrf5v0f/CeNXkNDQp1uDyTFGgGfXMw9WcwD+V5jd2PNsOc0Oq+18FR7t1zw+jcqWAAK+V/8cc7QTNuaJm40LXCxLHgAEW9E5oZ1bds1ocHR2BnSQ5ShTRk7xyFOuh/PwIYdLTTMPRuKo4bbalgLcUEYG9GcMc7iE9u6rS7rWKqD1mVBZKlN43EZ8BRrxiG+BGMR8R3v+8CHVPbBFI5JGx8WTlBbVwaKhGWYxwzrp3o8L+DBvDcDnPlGUyhblVVVKQ5OT4LpMAr2j67XdCYyS1/7xgvVrtMIjJWcrwA8BkAT42OKQqgPKTTkbZP9gNUTABleWgcL1mf8U7gbDubEPhF+24IH1VtV8ZoMaizJsCt8dwCHqh6BWFrTp0nIbO5wKTdBbFkJYBrfs0LwFKVYIAhAtP4LAPrUZ69SckcmJzw0QDWNOJGGpo4v5wAH98KTAHps5ZuVgIeK9p0eesX2ahEs0ojJQnn3e9+v4shjCh4kHgA0O5uXHbtMMccNT3maZkGQS2Soj6E2FkCW8jwJnoMNHpO6BMWhqlmimklLUbGS1gAAEKRJREFU7woIAeMxBU+xMCuFvMmuQHim9vGPfnqbWp3x8mJoQrZplG9gXbANqNATgX0crHtcjvLg8KSmkHbNoQVWjMpqLfKjn/yvAkfzvfaebRknqHWGwdesC17KRbqyi1RKCh6cZDYzEbvPpe83RRtxrgEcG0ZhgdQIpoM1uY/3310JeGwUA9VcAc5rX/cG1aC3PrrNaNILqOKN8s1C5yrzQLKs9xwAadZomT6ERZESXcAKNfCgxtmiicQfE8Q+su4IDUCCTeFxR9uC6jSOx/sCHsz7Wwl4UHAo+ImcQ6lhyv5qnA5cZGpqj4VlwDQXPOqGr7riqzGrlvKUinltI4nQDNt65NHtSvLIFSKJr8nple5wSjMdbLZDnV3ZVOVG3m/USKtOmmPj60+kc6tSox2ZUZ+X3edhodimetNZo7IbMNfjdkiuDCdMqvZ1N3xP15A+I/ZvIcqy3HMLaFuNKltj8I8xFtovhFrZQcL+ez/4Ic0XIiAJ31eXPy5hGmDk1og3SgTcoPgYNQcqcSXYh7LiS5rg+IO5ew/ub5u07SD5Y7Ruqg5tAKO2GgBkNyDtj+ygm82Qtrd2E9GorZH6lfJT1Il10MjDZK/WLYTqvOHNFypwKEJlfVf4sey67smxBp49+dD89xYrFdk2MSlHH3+SdHgCarXkwl2BlLgCGYlkVos/PmQAlLAAspF3WfEmaYzyxBWqoTYAJ6SjVwFkQWQAZMHD3AEcC5ph8STMCGRGNV6ZuHHN1xpcI/RHJ+a5d3iNsquNTz1KuQXAodo/f5s3b9bj/DVdyeP9Ah6VmSjOuH2HdLh9Ktl7I2lJD6yVZmdI4r1rFThKfWrgIcvAAojwgCc6eCgkPhc4UKCFwWMA5FGqA3iGtK8rVn7Ag80NwyBcYPSwI9UeR9GCu/9yv1Cl3oR3iTz66KMKHIC0ErDMf89+Ak9ZtH2yiPzwJ/+rlT+pRxiI5TRHuzuQrmVUQn4NzzYpKjbb4IkOHoACtbEUZy7rspTHsK75bIvHGGOx8tMZCJaF5R/fFZkV+K6++72blOqgGKHw8IfTk799EpjnI2pvHs8W6CpjahxTEIgCBp5gXJK9oxKIwcfJJDWTYAU+TOk0SSVtBY3h4ModB/P3rcxTl3cCtdx8hF47d3b+rMxjjrohtTakSTMmb4v8LVOCpV3+/VOfMalU1X4XQAZ5x8YmA6C9WfP9QnnKeN5R56Usu3btVLJ42fuv0IKPYYojZoY027IRPMYPM1gtd2aj+g/mAh7M365qRY3C8hzwNALICs6NR8Bl2BQtBsjfIpEPivO2d75bMyGojEb2J9Zkys8BFiv3HFTwYFCkZMHYTnhoWR59dKuSw1ef/1rpdHnFH0kpOYZ/Q12gMobqWPCwgw7m4h3s3zbgAQALD15vBND86+U1k3dOyjfJgDS9fcGJJwu5VziyMakAHPqOQXkscADR7OzswaM8GvNTpI5fQWamxtWgWC6R+UNhpJOkqa1LEwJVANTUlEbwmFJnsLInMtuiJ/zCwLHPWwCZY90OxGNq6gxo33VqRENxNh71TC1+wLa2dRIt5bHGQWKTbezOQWNbSnkqRSnOTIhUjCtjanJcwbNz17i89NxXqgxEBQdiSkgKdIYzEsytknDfWumOmlyiRl+Yda7i3sBi/fgGFhSZ3LX6mA8k6vNQuobnKZrFkdRg+sxDbWjhRB95bDnPf+GJ2hIT4BC8x1EzP2tGYGMItnY6jgcXPEXqFuMHK0ilmJfpyTGZnTHhjDvGxuXFp56uAPLSp6oawkoQPR2GQ9lVGkwGUAgia/SHAShNOX5cszXAUwUQhtMqiOYDiEIHNC+h/wY5//1rDld2FU73KXDIgHj+cccLmS7KoqpHKqRqsao54AFAdhxk8JTxuFdKkp+C+hgZaHxsh0xMmCLb3Mx7L8eJ2qYszBNOiyuYrGpgdc87wGFYKsSxEUyPXwq0HIAomlUtFDG0Wms9ap+wLIUzA+rsJA7Z9lLdvnOs1oCFXhh1oFjANB4PKngoAE6jhrLMTIwbhyrEskI/hLzsHNsh+RI9zkvysU9+SgHU5QlJZmC1muIpT0cutmVVjUFlTwTKYxybKBIYTeuG0zoFymmLKboj+uIZteIn+4fFFQiL0xeU1q5uueQ9l2q0A8Lw9h1G44Ud8Rjt6hAHD1gBMFifyjIxvlNKRRxvtNsuSqEEKaXqQkW+8a3vSDce3uZOcfvjEtHybHUKY4PIOAIewjwevxSnGrxeq+lTB5Dx/eWM/49SKKle8cVS2oEvnM5pMxRHS5t88Stf02lHbuEPQdj+jY2N6WtGvmmkNo3nB5HyaGGEAsWhqm1i9MqJPJyRQnFa8gVaEpRkJj8t23aY+JHf/+FOWbv+CHF7wxLWBqzUHiSgnkKMJqQVCvSEoTxa4AkttO62UYcxTmOtIjIirmBUunwhyQxRCqVNXP6Q3Pbr36gdZ8dOk+lggUPmg1XHtddYtXDFwhToIIMHeFdoIU3jek0YgwSVFDjFEv2+81IqQ4nM7uDVzVselbPOOldoZtuDSb0aLN8o80BxANATgfKYAlELg6fDF5S+1evFRxRgc5ucctY5sn1iSiZmaYJiCD6AwWZjU2agRDRww5p8SFOeKayXBhfaJWZqalLy+RkpV7A8F5UCASbAMzs7I1NT1cSyssjnPv8lcbS6tGIqUf5oGQGce5SsS/RVK4NVybsaGY1/zFipGzMGrN9sT4/mdxptJ3t6buQV46+bU1ZugZyq+kawVuLGzxm2ZeQd6h2hnmekf/W6Gpv65JWf05mcoQwgdpxiSeUdy6o47ty5s/awTnnqYTQGTPXHB01VNz8M6bPDZhUSA7TQsK+b90NK//LQFq3QTkHvVpdPiPYnUY2KHBS0JEmf8iC0ZArkVosnNSwuWhumRiXQu1bbNVEi35seFk9qSDvwaBceKnhlRqpukLpF25bT5wgIWSystHsz+CwOXneyf84wlMQAmcKSFLiiKJRWk02gUQ6JNzYggeSwFvIEgIRTcN9Ue0/0DYs/npaWrp6q/eYE+cX//VplGAoSWLbEcW8Wf18/s598WxYMe3fUXVCtx/xfV39Fq8NjJaVZCROJJkZifnxovdYFavWnJNS/XhKrjpTu5Ki0BnPSEcppwYXu+ID0JAaFIwOQ+TKjQiGqxcY+gyeZM+ChG99uADLgSY8crtEEHb6E9ERy2kY8lB4VX4x21/3SWa2axv1Se5CqX/RkZx4cbV3yhf/+qtx9730KHENSKkJ059iuHZrVsq9A2JvPHzLgod4vvBsy/PCjO+R1b36bmbjOHt2FVOls98a0GFF69VOkI5QVR3dUPOlRiQ9vVMpCwzg73JQRqRZhmNt3wTbvaDxSVxA7CxGNez4oJQeVsRECVnbhaMrF9YsrnNGwCRSCaG5U61j3hLLio495akhivcZq3O4Ja3FPNFHaA5xz3mvk4Ud3arYKciJ/yDFGyinL5ATJmHsn8O4NYBo/c8iAhyAl0nkQmzgCol/c/ns5+riTNLWZyVQTfbxX2rxxrfAZH9pQAwgVrkyRSZyspmmcO9andWg42jCQBY8NGs7e1hSsy1+N8ktdloJ6IsNFcyPq5MStQLoS4RPIebge8IgTC05dwI1Pf65cf9OPVJNiU+VLFZVrkF/UJ1U1ymKQJZ+ucVEP1PkhAR5ull1FQHYtFURrQZvGZ7f+8nZ57gtO1J0IiPCPIVAjH5BsSJkQIugaB/nzjaNuiGsUvBvO1ThnbSx7euR75gvpdeCgAFClFDmGOBuqllJ2WBuw9A0L7gXK9XNvG59xtNxw8y1aSFSLaM+YjcSmagxYx/UD21IFZGb6iQ0e6921ZJm+ngCKFBEmjom88Yc/kRNOOUN3Jk3uqdRBFVDaGkKVGjU0q6kBLHb9ctoTbKuR3ezJua1kWg9SN6YFE0ZhBHH6r3ujSTXyZYdGJT0wJC3ObnE0t6oW9bTnPF+uv+nHChr00x0TM3rP5MZRC7lU7QFRmyfsIgxmh17xe5F3ta+fOXQoT9kkFZaKTF1Fkw4h0fxNTk0rgLQPgojcfsed8prXv1lL8ZKsj1BJGV/NjGwoHwKwCMUkg4DXFhtQhn0FD8CZ27yEvhxECPK7WY2viWd5LimOtnZxNDeL0+uR177pjfL7O/8s4zOmFwcN5WjkQhwOrJsuhkCkUO1xaheceSHshSze/OwTWNtCnWcHVarJhUQlQpIBki2wABWiz+dswdg2mFBkoy/+91c0BKG5o1t7R9B7i+a3NGEjjppeWgxT7ZyK57sPBV0VQMa3tIdsC0NmfEACtWGAY2KSTZV17SvW3CaO5hahae1Xv/F1mcYOprZ3oygAINpZMhszRQMazjHc04TXCsy6o3heN5fZaBZUB/J4SFAeE4kI+TUgUlKs+w2IMGVWm6gbtRqNXIQbbNq6Qz79+S/JMce/WIOiVMVVNdepHVxcvrDQ+pBk/3Ayp4NGbwwoQzDdLz4avzYMhGceByjkkCM/KieuSEq6kVnS/fpckEa8SXpuDUoEu004I+3dQW3ophpTa5d0uDzanPYT//lpuf+hh9TbRzdQuquXKnQkntZmteS/adxNtQGuZvFWwybmA8cCyB4PJGjsb/0VgMcASKMVF+Hr1k4Ek6MBLc1qb7ntl3Lp+6+Qpzz9WeIOhLVfpqOlXY1tBEw1dzilxx+SUDwl0TSB4wnxEPsLqwMYGeKIEHrx+KelJ5LSc57zJ3vFGYxLk8unJfYcrU5xNHWJoxmh1ykdLr+MrjtCLnjjW+Xb371RHt0+JtN5o0marVCRyekJmc1PqQuHzVKqmJRv43vafZNYkCx2tAt6II+HBHgs25pLcQBNfQCexQAEeCamTNWy+ieMektgFALnrT//pVz95a/K297+TnnescdJ3+Cw9FDxvKnFAKq1QxztTi1U7mhGJqmO1k7zXGe3ed0+39wund6gZIZWyYajninnv+4t8rFPXCm/+NVvZWLKAMVeC4Ah9BO/E66ZCjUAlDmROAB7Nqo292Gs9LsLwIuBxj5/IEFjf+sQAQ/TbPbkYselwMPN2E+zAMSvUMmDDnW6IDhtgWK1CQdHnh+fmJT7H3hQfveHP8rXvvlt+dLXr5VPfOZzctkH/1EufveltfGWd7xLrvzC1fKFr14j37zhe/KTn/9S/njvfbJl55hMlQg4MdqgvQu+n7IlyClcR/2vYvL9tepIUcrFWR2w68U2hl2o+ncsfGbfdyCPhwx47OJzXOhvuUmhgifGMzzINpmN7+Fz7HiESzt4rrHSJ2AjzshSChIYGfZxvmT6lfOY8wLss4Eu6nMlAq7K+vt8v/mjmijnFZmZnlIFQNVrq2ZzRFkoUbqvXv/RbpRGQC00J43PLTc/j8Xrhwh4TMSbmeY67dmTyWl8L+eNAOLxfFDxen2RRXaNEbY5I/liQUcRNqkAqejjmfysMGYLeX1cQE2ujnzVWGdYUVmKaIo1jdEY8pQFW9AUC1KhTJ+WsSlLhRCWGoAskOpgarzO+fdpHz8W4FjuOw8J8ChradjJjVTInvMefd8iQrNCrmKKUmH/QM1Xm1F152sqUPXcvte+R9/PZ6qjyGdZzIb3I5fxmME5rxtZzUBsNk+7qbosY2WaShm2VZL89JRonDcpSYCG79beVBUpz+ZBd5X6NIKnDiALksWOyy30Y/H6/weNRqssw5NebgAAAABJRU5ErkJggg==;" vertex="1" parent="1">
          <mxGeometry x="283" y="450" width="62.18" height="60" as="geometry" />
        </mxCell>
        <mxCell id="9LfVYxGMdytWgAIbFfiO-9" value="" style="shape=image;verticalLabelPosition=bottom;labelBackgroundColor=#ffffff;verticalAlign=top;aspect=fixed;imageAspect=0;image=data:image/png,iVBORw0KGgoAAAANSUhEUgAAAI8AAACKCAYAAACTrhkgAAAgAElEQVR4Ae2dB5hkVZn3q3N3VXflnKtz92QYFMwiIhIUJKMiKq6YUTCwyoou6K6767q66rqiriiuAcWA8ImIq7IihhUDKhIkDTMMkzp3xfd7fu+pU1Xd02kCMyPQz3P63sr3nvM/bw6Ocrksh8IQqYhIeYHB8xUpl0sLjlL1+YU/W/++Srkoi4+S8Gd+ae+OpbJIfXC9c+e1Ui7Vfl/KRZFSQaSUr46C8Pr8zzQ+1gtc4l/jew/UueNA/dByv7MweOxysjBlKVUaRrkipXJFipWKPr/w51cOnkKxLPlSZS9HWYpPgmfublluwfff6+z8+kLXzwGPgQXAKdYGoBEdBT2a9y1FM8zOZ/fvPrgPrqC4L4PrKJthKNBc6jP3dy3lgfoUBEr0JOWZR6pXDi4DnkJ+ugaiMqRdKlIslZSdzBQKUigDoIouNJ/IV0RmSuZxvsD7zV+xWJKpqWkpVJ+zx1KpLAz+OG7Z8oj87Ge3yde/8U35z89+Xi7/x3+Ri971Hrn4kkvlkr97v7zr0vfJO99zmZ7z3KXv/4B88sr/kq998zq55bZfyX2bHpFdU3kFnYW/PQLnckVkemZWpqZnpFTiFfNXKhakWJit32upIPk8j83f7OysFAoFfVAsFoWx8rk8cATgEGFbJSkVZ6VYmKlNaKlUUBknXywI8GHJZ4olGZuaVsAAFaZ3piIyVSjr69MzBRmfmFbZwzK8Yklk+44xufab35F//pePyNnnvFzWrT9cItGE9Lh90tHpkpa2LnEHItLq9IijzSktXW5p7/bpsamjW48dPX6x547WLj33hOISTffJwKr18uLTzpJ3XXqZXHvdDXLvA5tktmioWSOYAPhsnvsyAIbaFAt5KVSBMzExITt37pSZGebB/AGkSmUuFTtUgHTIgEdq9KSsuzKfZ7cWBfAw1flSScEDpYHiTJdFJgplmSxWZKYMBap/w7ZdE/KF//6qnHL6WZIbGBZ/OCad3R5pd/ZIh8stPb6ghGJJiadzEk1mJBhLSU8wLt5oWoLJXgmn+yWU6tPzQCKnR57nPJod1Nf88awwekIJ8URS0ur0KuAAYKc7IH3Dq+Wsl58nn//SV+Se+x/Su+M+ANNMviiTU9NKlSzIoUyAxP7l83mlVva5QwUwjddxyICnjOYhhgLNzkyJZVvIOpbqzJbr1GaiWJHpigjEfrIk8ps/3i3v/4d/kbUbj9JFhEqwiN5wQvzRlMQy/RJJ9UookZVgPKNHzhmBeFZ88ZyEM4MSyQ5JINmnjzmG0gMSTPXrY2/MvI+jPfcnequvZyWSGVBwATKXPyrNnW6lUE5vSNYe/lR592WXy+133DmHzUGhxiamFEyNFKeRzTUu2KF0fsiAB3kHAMG+KuWCVColmZmZVnkhXyrLbKkiOydnZGy2IMCMcfemrXLFhz8m6496ljj9UWlx+aTDE1LKkOwfldTAKl1MXyyjVINFtRSDI4+hMADEl+iTYHpQj65QSpzBpHhiOfHGe6UnkpFo76iEMkP6XHc4LQx3NCv+ZL9+zn6W9/I8gGMEkr0Syw2JO5wU2J2juVNWH/ZUueKfPiJ/vPu+GpCgOdPT0wLrsn+Ayco+hxJo7LUcMuAxBN3qOyWBbU1NTao6XihXZKpQUhkHOefbN94sx51yhriCMWn3BMUby4g7klZqAPVgWOoAZfBEM8LRDqhM4+uB1ID4kwMSSA+JLzkg7liveBP9EswMiz81KD3RnHjiffoaR97Ha7yHx85QWkLZEX2e5/hMODdqPhvJKOAsVYv1Diubc7R0idMfkTNf/mr58te/JVPTRmCGTQEgZB37B4jsgh1Kx0MGPFCbcmlWB+czM1NSqQrK23aN6Q799FVflKc99xhxBSLS5g5IIJmTaO+wuKMZCWeHlWpAQaAW7H5LTaAOUJH5g/fxHoDjifeLNzEgvuRg7RhID+tjXgtmRiSUHRV3DBANij81pJ/h6IrmxMvj5KA4I1npjuT0O/ic+eywBNNDAkXjuhL9qyTeNyrOQEypJex17frD5KqrrpKpqSnFDGxr165dNeH5UAKNvZaDBJ65thasxxVkm6q1GNBYQRnt6rs33iSr1h8uHW6fNHW6JJRCcB0Qbywt/kROArCI9KC4WcQ47GfIACLWK54YbCerz3POexic+xL9EkgNVinGgC44AGLBe6K9OgCLfQ7QOEOZGmh4HwADPIHsqPjSw9ITN+8HbI0A6/Anar8HiBiwNZWxkJG8QWnt6JJEOisf/rePSalirF3jE1MyPZNXCoxRtKzjwKnjFigLHR8z8Mw1ihmwCBbiIowHEbgsUinpKJeKUsDAJiITs0U9co495anPPFoc7S4VchF0Awi48wYAgoIAhr0ZsJoDMeZeG9dbH1AkqFF3KCGwtHVPeYZ85drrVLNkxvLlOpisTjY+Pq7GRexhC81343MLLf6+PncAwGN8SpMTYwqYQn5GJsZ2KmjGdmwzAILSVES2Txph+J6HtspJp50jjvZu6Q7ExB1KqEaEVrTg2EfwzF3UvQPgvnwHwM2MblSK1h3JSnJwrXSHkipcP+e4F8nP/u93uqGmCyXddpu3PNJgdKzIrp07an6z3f13ZuPuK1AW+vxjBh5+rI586AhUBx3JUJ1HNm+qnW/fvl0nZ9dMWd75d5dLq8sn7T0BiWYGxBNOSjw3tDBoLJgeB+BxuIKSGFyngna7N6rmgkT/qLgCMXG0ueQ1r3+z2oim80W1XGN1RqiG+tQpz3zn72MHHNb3MQVPI4C4wempSeNyKACiisxMIxwi4Yj89o93Kal2NHVIondYgomcdHnDEk71qc1kQYrzOAEPVCvau0o6/QmVzxIDa1Qe6vCGVTNL5IakzeWVcCIjP//VryVfKMnMrDEiIl1v27atYaPOlycfO/noMQePJXfWXjE5OSkM+8cOetclfyuOlg4FSwhLbjxbY1WRdL/4sdNYoCx0/CunPIAHIR8hHoFftcRUvyQHVgn2qp5ATA2c3b6QOJpa5W8vfe8cF0yhuHQ4h12D/X08YOCx1lN2DA5D/DyMwzceIc4ej+AnwqgX7x1Wg1+XL6LuAlwGGNgw6C029lVg3hd5ZX99FqqTGFgrkdyoqvPYhXzxrM5FIJaRLk9QMv3D4o/ExdHcJusO2ygPP/KojE9OK+VGEzvQ2thjBh57M/YIa9q8ZatKPMTNQH7bu1wSjMQklsrK0NqN0oR/yBOS7Mg6ieaGxIOvKdWn6jgAWXwYe83+WsiD8T2YD+L9a1Rb7AokatZpNg6yX+/wWrVQD61eL75wXDp7fOqru+H7P9A51RCVWkyRAZKdewOq/c++HhPw1C+6HuOyfde43iSOwX/92Cekqa1T4pleiaay4gsnpNMbVuMZO67LH1NfEm4DLMHYQ6x1eKFjXeU98JrS/gKaMSKm1RWCUdP6znDI9oTi4g4nJN0/qv46PPmpvmG1DTma2+U9l/29ENdkYptMnJONLaoHqe1/z/x+Aw9+Gf4mJrEMIwaLzFZVy+1jE6opYK94w4UXq3zj8oXVWYlj0h837oM6COr2j5U/99cLnDoAzX3P3yCw60imX+U+XyQlsLEw3v9krzp+cbye/7o3qbkDvXbnxLSxmU3P6oadmi1UQ2R3B5DViPdGHtpv4AE4O3buUtCgDaCQw55mS8b4hx3nuBedKo6mdkF7SPSNqCzDzrKOyfokPh6AsKf3sDBwLJAIE2GucPLi1OXcPiachHl9wUkvkZ1TBQXO9vEp3bC7JmcMW1OWNhc8FjgcDyp4CHKC2gCcyelZeXTHLr14ArUm82U55vgXq8EPL3Y4MyCdvqh6pK2/yVCYPZ3wx8v7lwYOALIeelUOiCVqkAGhTN5ISjBzHHP8ybJlx4RMF6ubllinQqkaY10HTx04y4fALgas/UZ50KCI8ARAUB2MWZZ8nnDKGdLc5dEdg0xDuAM8Hu90c0+45o1+4lIelIK613+hc2KLAJCV/2oyUdU/BmViYFAcXHO4UqDt49MyXTRhukb2mQ8ea1Q8yJQH0ODAA0RW1sEf88IXvUQNXNnhtdITTkmbJ6IGMfVGh7MSzq1SZyMm+ifBsziAoMyB1IAOzi3F5rlIbkQ6vBHBIg1F0pihw4/SEBYo0CT+Qt3chyh4rKBMiCWaFZL/S897tTia2oyW4A1LemithDLDGt7QFc5IeyAlscH10hFMVT3a++ag/OsF39KUxyoNRAA0RgzYuCOexx/W0h1QykTMkKPTLc865ngF0FTBZJvAGaxX3rCtQ4jy7GhQx4nfbWp3SiCWFl8srXIOkXiOLr+0+ROSWnWEuGL94uiJSmRgnXiS9ZAIQiD2fPw1U67FwWOBw8bQgLXUoB6xRBOkZkNHugJJVfNha/G+EY2tRgZ6xtEvUAFa1fgGoXm/gsfaZiwyjZA0109SF7Lm8kg+q2SxmtHw7suuELINiOPFvE7QEzyaGJbU8AaNeWnzJyU6uF58mRFxRnJPePAAkvmyTiNw5oOHx4DHFc5KVzAtrrAJiIv1jSoLSw+ulkh6QNpcPrngTW8zNqCqEZG1nQseUnvmruliQnLj8yow6+LPS1izX25TYyt4xCslKeVNegxxOfio+CwC8rbxWQ1Gv/Lqa6TJ6dMgJyaD2F/4s52IuXEzlsLsG7uy3/nXy7agmovZthanqPa+OQYIvcXugxaWRKMdklByQHqCSenoCcnH/+NzUiB8ioSBKdbQqDbEjpNDtm/gqWZgWqkc8FjgkFNdIaeKRDwCuMQgF9sOlzA+nRcu54/3b5U2T1QFYvhwS09Yz/+6F3XxxTtU7ssL1Ur3K3g8VfCE0oMSJKQ2kpNuf0IcTV1y++/ulImpvIFNuSxTUwTbs55QnX2hPMuAR4qzCpxZ/cFyLcMR+w4/T7g2wnA4OyLp4Q3iaOmWgXVHSocvLq5Q+gmsST324AM8vlSfoTzJXqU8gWS/BBIDEiBUNtYrTe09ksoOKpcgMXJ21oTFjI/vlEplX9nWcuCpFKU4Oy0lSFwJI7jIo9u2K4oBzzmvfr20e2MaUgBYrJOP+GEEvUNllz4+r4Og/F7x40ROwf56xRfvFX+8X8KpIYlnRyQ7uEYcrU455dSzdM2KpXI1ybAsU9MTjzHlIZeqmFfwGGZluabIF758jTS7/Ep5AA3UJta3WtAAoEYWSI/PhXvsKcvy80bQfVZ8yVwNPF7kzFifRNLDkuxdJYFYToLRrFqhP/rv/6EAyhcKMpOf0RyVfWNbCMzVSg8IwXNlnoKUC7MyM0nIY1kFZSNuiTy8dbtk+kdUQFb1MZKVVUc8SxztHo1NgY2ZAKdDYZIfr9fQJ554RsEDgLyal2bAYylPJDUo7kBceqFAze3y2zv+qEUjUHamNEN3z0M2qu4J4j/mlgeZo22Vi1V2hV+8olmMhVJFBeU3X/QOdcqhihPI5AympMkVlNyqjSr/ODq8TwrNj7n13FAeqI+OBvAg84SSg5LIEZGYkHhmUBzNHfLMo58veQLIRGRsckLrHzWq4Ss5r/m2oDYASFXvKuVpjMRXJlUpa0qsVnoQke/d/GMFjoYLpAbU+mkpDbJOdzgjycF1CqjlSe/jlSociPvaHTzIPLAtf3W4/EkFUAgnazwr7d1eufKqL8hEvloiZi/K48wDjw1lnG9EKqmQTOUG2BWJ+SA2DNKjKU3vNXaKAzFRT/7G7hsRgTlnhnrb8ZH1qcDsj6NxDYg7RBx4n3hCKYmk+qXLG5RoJicPPLJVLdAQBP7IUuWPmHPiy/lj3ReiRLuBx77Jsi1DfUq1PKGx8UkFzt/9/Qc1RQZvb90I+OTC7r6wB2JO6uAxoRpzwWMA1C+x7Kh40X5jWenyhcXR4ZQLLnybCRyrpjkDFlsTiJRnW63D4qLxuGLwEMBuhWS85USzRXPDmhf+JNU5EABZ6jdQzxtjvHcHTzA5JAzUdxsb5AxEpCcck9/eeZcJo6lGg9rsFiiPpT6NoLHny4Cn7tsCkZr5ICIXvv0STYmluAAWZSpFYCI/OLvuyd9l8xqKY4PEdgdPNLtKPBGep+xLv7gjKYnmBsXR0i7nvOp8BQ9FFmBRFjD2CPWxgGk8LgqexjdxbqnOAw8/ovE5meF1avyL9q3RZP8nwXMwQQwoAA6x4BZAdZkHthWk4kdiQNxRkxvmDCZURmonF6y5Tf73Z7epfNNY2kWfwHmxr+DZNWayHy5401ulrduvQjJ51dGBtdLqiz9JeQ4q5V0aPL74oHSHcxLOrhJ3lJIyg1qoqjMYl+SwsfucduZZFiu1glK1J7DuLaCN1SjP/BeNwFwnV1CeHWMTEoqnBXd/qztsiiClhqRHa9sczJ33RP/tRcCjgMY1NCg9sCxkniSZqaYMTbs/JoHMgLiCUelwuuTWW29VvKh8W6nMqZE4Hx88XhI8vMHaf0jf+PBHP64xsuRVpYbWaSxJRygj3jRVshb3XzWGDix1/niVmZa658bXFrv/xvcsdG4UFtiVHQjPCNFsKtbFAKjDl5RIbrWyLuxw2ORc4bQGjxHxefkH/lFmKNtHwHypItPTpiqrmmg0BggTjhlzwGM8VdAXqbkfrFqOBQCNHw2L0h8kpWkJtvSwOKN94rbVtBYh3eaGbezOYsfHL/XY1/tf9vPJfnWMqq1H8/bJoK1n0SIk64gPCPLP3DGodiBvJCPNnR7ZNVWU6bzI9KyRc6coTUwgEHWkG0al1EB58rMztXrAoEqT5zEQVUR2TRflm9ffJN3BuAlawkueHBQ3VbRSw9JTDRtdeucMaLQg4abzhwk5ffyDZ/5928fL3b8Fj33//KOXEF4quJLXZYeCB3aGJmbB078AcChfMyg+QoI7vPLJz1ythGJqBq+7Cd+qaJAX4KFyPYPzBvBQSBoA2T8ql+M0o74xlOdFp50jFB8gDpmij9ww4aPB3jXiqpZeexI8C2+AZRdfN9/Cn2VOl/38fPDUgLM8ePxxbD+DCqq2nrCsf+qzdb1n8hgLG3KpFDCLgEe96JTrr5aqt6o5SXtkIVLmg6R7wMPNkDrTFc5KZGD9isFjdtiTbGvheVgePAt/jvnks9U4njnA2TPw4A9zNDvlV7/7s3GYjk8blyYFEpcCjwnwMnk9UB/Ag5AM2/q3T16pgUQUqeYiMQpSsNEV7ZVQ31rptpVEl5R57A5a/LgY5fprf95QjsXv276+2H3a1xc7ms8BlIXG0mzLUh6E6kh2WMNVL/37Dyl4ZnAloKYXy1KZB545Mo/1mlu2ZT3nCMqHHflMcfkiJr88itvflJalfKw3PbKswGxujp2x1Fh85y02qX9dzy9177y23P0v/fmFgbMyyoMdCNsPilC7JyzrjniGbBubVrFFIy2IOmzoF2bOG2Qeq21ZkzRJfODuoUe2CVUYIqk+raZO7WJTwHpAgmR7rkDbsqBZ7Abt68tP4HITfKi+bhZ+7+9/6c/zvYH43FH/rQbKowC1qrtR333xIbUDAR4qsvK5pk6P/ODHt+r6z+aJn5BlwFMBKpVayTeqdpEg/+Wvf1NL2VLZQkvvJ/sl0rtKk83CfWukPZipUZ75ZNWAYaEbn1vliws2ADpUF3/p65p/3/bxnt6//Zw9rvTzgXhOwRNsBFCNhdXBY76vUeakYDkyrClcTksEnN2kK3/0k1cqeCYmjRI1n/LsZueZnBhXPwbUx7KtF592priDMQ0gohoDi2xuDpV7UNzJIR3dsT6tkG6rnlNCX+1BKSyYCa3uqd7cRE6autwaS0t7IoYrEBWKOBKFSAAZxR1J3SGQHkMWz5kbX3oRD9Z77HzMFWi51vrGwT4W6x2pdszJSDTdr4mRw2sP1+xOrn2pzxOpmRxYrQur4RTNnUKNI0qrULfZHUxImEr3oZTEssPiJm4nPShOiodrnUM7dwuDpzOYMrlf8ZyWMKb+NTRnerZo/JqamkOWRT3Tom5hLhW1wDbAIRAIgZn6OoOr1oovklwWPADJlx4Sd1UTQ50nzsfU1suZG291quB96tnnym3/91u598HN2vAMU8A/fvRTChALFjIuqNMHiCi5drCAsZLfteCx9hcDAgMeyz4o0E27JVKA6cjT7vKIN0SZ3C6JqSLSX7N/LfT53lWHKXDeeNElqkr/6Z77ZdPWHfKL238vF73rUml3+cXpiUgsMyT+aFaipHa3uyU7vEGCKRqyWIHdgMeDjS45KJ6EaXsQyI6IM5zSavqdvoimiW/ZvkupD5kWJkB+EfCQAcpQ4NBNr1yRO/70Z2lz9ugXEbq4FOWxpfMBDz0a0MjgoRY8kEJHR4/cfMttgvkAQXy6YBqabdk+Ljf+5OfiaHZptoUt7ghoAM+hHkC/EvBo+ZOmDm3n9IrzL5AL3nShPO1Zz1WPNpXtoVJLgQ8bG0Wc3vDWdyh4mD+SLTmiFG3aOib9wxskEM1qrHIiNyLZoXXiaO3ZDTwGOI2cY1BCvasMeABynCyLdrnpR7dU5R7TOM9QHUN56PlaozzIO7MzJIOZbiuwrf/49Gektatb+1UtBx5/ZkS6KQWrvRyGNY8a4ZpIQ4pUtvX45aYf32oMUBgoSVHeOWaQLSJfv/4HmnFBRVDYFSk7pO5QXhYArYQCHKz3LA8eyp50aDncB7ds083D/SNlXvb3V0hLZ/cy4MlJsn9EF/SD//wRnUMqrvF52i7snJhREO2aLEsiMyxuCmLGe5X6BJOIDak5lMeCtC52DGr/jGBuWDNPTZmWdrnsin8w4CkUpFQpSZnkwEpRz+mDVgMPAhG2HltbELZ19svOFXcgvEeUB/Ag9xCuEUgNaE0eePLLXnWB3iA7ZesOA5rvff8HcuHbLpbPX/1lOeuVF0irGwv2cC1J0LKrQz1pcDnwQLFJuPvPz32husgz2kaSxcf+tv6Io5YED59PUjalqU2OO+lk+eSnPyvvu/wD8vFPfkq2bN2mCzwxXRZk28994RoJRLLS449Lq9MvA6uPEG+1SUvjdbppDVWTWQelE1lzYLVmnRKV2Nbjk+cc+0Ld5LNFCxiO9rwBPFOT5C3jSZ1WoRnwrN1wuHiCkWp3vKXZlmkZNKCUh5ZBsC3AQ9EhJu72P9ylE0ehISbt6GOOlZbWdvH5A1qY2hWMq4wDy7I1aBCcAZPtUHOwKMtyv9u4KOzq+TKLgqfdJXf8+d5aAxLmgGJYzPP5F7xhWfD0BKKS7hvS1paOphZp6+jS+YvG4rJt+y6ZpVEy7qSiSFdPWFyeqAysOlxjlrur6d6N1zkfPL7ssHjTA+Km3mG6Xzq9QfFGYrpmtOgsUuRCgWPAQ6fpGuUxfi2Tk0XkGHaeaCIl3lB0ReBB5oHqIPMAHrQtBGYKDtGDkz6gE7MlvcFf//b3evP+QFDSmayksqavJznultqgebFoUJ2/dplHwdPULj/48U9lKl+SyZm8TFXbICGMPueYY9W+YtnJQuCjyHkyNyCeQFjbKg2NrJJINCYtrW3aeBcwPrBph87v6We9UjyBpFKe7kBSUoPrdmNbFjw9ySHpoWhU3yrpjueEQgmBVJ94IglxtHfKn/9yv35nI3g4nwMeK/PQaY7d8Ns7/qAXijCn5furKR1zVfWqxI51Mj0iPtT2mCk6RHwzKnqzyye5kbU1WWdsOi/Xfud6aW7vlP7hUfEGghJL5xRgyEjYGlDxiTexFKfOtozqyzVYLabxaMIQTDiCed4GhVuzvf28UVvNIhlKYaiLfb1+bPz++rn9XmOv4nmrltep1Nzv6PSGZGjNYbqToRAMEiev+fo3pLm9a1HKY++VHhz0S41n+iTdOyBOt1eSmZxAhd7wpgtlasZUoAVEp57xcnG0uKR/9DDpCaVVduS6oDwWoBwtgGBfHuTKNGVaUHQyEusdkuaubrn2uuur4KEtOdTHjDngwejDHzUFOfv6t6+XLk/ItGDUrnlzVT1DAq0tg9doejaigUdBEgDpndA/qsFj2cFVOmkUV0Qtv+Y710tbt1cimT7xxVLV/ll2QRZaiH4Voqn1g70k3jukxayzAyPidPu0EHggQYQjdpSsjniuTyLJjL5G9GMobmoXYwPp9MYk3r9W2rxJifSula5gRikcrSYpyUZBcWoo0q80O7RG7VyJ7ID4IwmJJNLKOhKZXu2UnOsflGA0LoFoUrjPUCKnoSu2PDD1Auk72umPayvLNUc8XT77xa/K9d//oVx48TvFH4ooIACJYXl2nq1dpgrCuOmPqopLLK39x+KZfpWD3nLRO3XNcCWw8V9+3mukzemVWHZIKLWi1FtVcza7GV4KhSugqna75LD4UrS6NBkxVKx1dHbLx/7zSl27QgXwlEUbBldDUmtsS5FDzk6+oBL8v378P6W12292VJWP1364FkJgKQDyzbCEMhRUJNioT7B6xrFrtHZJbnBUL2CqZMDzte/cIC3dPi0154mhptYtzjbvyOxkO4GmsYdqbzSVTWS1erzHH5REKiPxVFpanC5xtLSJo7lVHK1t0tblFEdTc3W0aDtskhRTfaPij/VKJLta/KkRcbiiCiA8yspemjs0Rht7DII+Kiuts2EXvYPD0tbpFIejWTq7XOJwNOno7HJKV7dbfKGolvZP5Aa1MikbyNHaranXqaH1WszT0dylGwrti2YtZC90+yM6z3V2Vb/vGkWM51SF5hptIxfaCnCdb77onQoayzVeeu55mqRAY1yoOCIE373Y+hmqRKjNiHhIEMREksTD3i6XXPZ+3fCFCtXfiCw1Oe3zHKMGPvT7pl0z9gS6Ba/kxzXgiLyg9Ih4Y1CTXvFB+ri51i7tMY6WtS/goepGc3dQOwUne4dUFsv2DehCApJU/4C84W0Xy9XXfENJ7bXfuU5u+P5N8l9fvFpe96a3yMDIagUClljA4wymxR0bkL61T5fmnph4olm1fD/lWc+TZx5zvI7jXnSanHzGS4V+D21d3coi1h62UT7ysY/LN775bfnRj6jnzcoAACAASURBVG+R6757vbz9He9S5YKONLR7zAyMqtUYq3B29DBlG+TvQzlPPP1l8sznnyAbn/ZsedGpZ8o5575SKRubZV/BwwoSxHfmOS9TexLgQe4k6nM58DAX3sSwdEdMdgU9PwDP2ee9SqaLZVkSPFiWQa4NAnvRaWcr2Vb5g96dSyAX8BCV740PiCdKXRhypLNqgne0dEr/yJp9pjzU/smMbNBOODhqWaim1nY55dTT5Ve3/0Z3x66ZvDAAKjLFVL4gs6WyPsYu8v0f3iKBWFY63FRmXS/tvqS0epIS619ntMKWLrlv83aZLFb7t1MAu2RU6c5uj3z1G9/S7+W7x6dmtDB2oWj6vmNvufHmHylrox4j3XvoqgzLivfjVnDKiWecKxMl09bbhvb+8a57lZLuL/DAOU4/6xx1fWDR5vdXAp6eKKGsIwoeNFytqNrcLs96/guWpzxYlpF71BQtIkc9+xjl3TR+xWazEvAQpQ/bCtM6OmF6I0D29wfbomBChy+mbZXoOZrM9cttv/w/5fXEHWHanCiU9Qh4pgtFmZzNC221keFosTiVN0Bau/Hp0uIKSqxvjco94dxqY49q6pAHt+7Sydo+Maug47vOfNl5wiIDGkwND2/dJpOzBf3eR7fvVMEXJ/LEjCndj78KazoyHwDCNeFo65ZjX3yG9oOfKpnQXr5786M7NGphf4CH9cOhfdZLX67gIf5qpeDxxJFZcXj3qW9RwdPulIHVRtlZkvLww6joCFxM9uj6I5T0Ejlo6v0uzjMb2VYgOSiRzLDKPAh3gKd3yAjM+8K2UN1jfas0mpFW0r+4/XcGFLNGRlPAlKXm+mChuQ9UYo4M+jDwvoe3TUhQnZb9khjcIK3uqPZ0wB5126/vUPCMz5Rq4BmbLqh9ZmxqVquK8t0MAGl/h+/fMT6ln3lkx3it9jSLQPFyZJ3nnfgSBQ8F3SiuDfXBYOoO7LvMg6KjBKAi8opXna9si1YNsK2VyjyN4EH2xFCIrWcyX1yabcGyGh2i/aPrapRnJeBBYCYnCJkHkzgyD5oHMs/qDUfopO4LeNAY0FwICwGQr33jW0xH5GrXXzS5O+99QD5z1dVy4cXvkI9+/BNy++9+L7vGJnRD0A+DBYYNsXjvufxD4ujyiSuU0SZpXG97t0/uuv/hOaABCArMai8H2N9v7viTPLpzvMbCoDrbdxmrOf46fHcf+9RnlfqY/mHrxdHilBecbCjPdKkOchqu0T9rXykP4MHAy+Z/7evfqAKzCteaWVF1hlpNa57Cg8AM5YFtQXnUOR1KiJu+Xh6fjM/klwYPVMcWM2AyAA/NUbkpavwux7aQd5B7XMG0eOlbHqaUR58uyFHPOnqfwYN/iyZmyBLhJPaNVrnnvgcUEJ/5r6tkZO0G9VSjvXgDIWmvakXHvfB42bZ9h04qzVRmquaCux58RJyBuKqx5G4To432s3nbLqUKWjW9mnIEGKAUZ5/7Kknl+iUYTaj29fRnHy3f/+GPlRoBTErPcARsUJUMtZC1SUtEPeInnnaOwLLGZ41DmPc+uGmzWvH3B3gmJsxGedOFb5NWp+n10ZiwsJS2hczjjiGi9Cp4qJ0dzfaL0xeQqUJpafCopF4NxaC8HDYLUm0w9lEsejnwkMra3E3/g7XS7o5InKAi1N2mdvnpL35dy8KYqYhc/s8fkSanR7r8UYnTQ5MeUlV1fTFVHSszXX+RI9C2AM+r/+YCOe9V50uHs1ucHr/QgzOOwdEflFzfgGRzveL2eOX0M85U+xV+JDzQLC4W7zQ2HChkul8/62jtkL88aCgP7Gj72KS+9+af3KrAxM4DlejxhyWW7tUjoRVfvuZaBc3OsQk98tnxmaK8+30f0DmgPRRq/wtPPkNBBbC4DsDz0MNbpMcfUq1W55iiESgcyQEdqkbj5MwNS0u3X7N1O9xBbeJL/9WmTrc847nP181Bo1oo0KYtW3WO2PysX1e1PcNS4PElh1XmcYWp44wzNS6x3ICaPu554KHlwWOLN3FTlvIgMJsqGEvLPM4gQVxrJDmwTmUeR1OnrDn8KJnIV3QB7G5k4iCHWDC5wFBmQJzB+LLg4YYI8Wh3B7XJW7qP2JgW6fH49IiVFjWZDoIOR0vNDtPU1CQjIyO1zFe0Iq5llg0yvEarRQRTvRKKp9RO9JcHN9XYESDYMTEjJ59+toKL+BsMk1h5A9GURhtYO9bWKnVj7mBtJA5c8+0bpNsfFZruEpJy/ALg2fTwFnGvEDyESpDqzffZduEACQD/6v9uV1vL1LTpr4XA/6rXXyiOTq9E+1YvufkBqNW2LNvityx47rrvgaXB0yjzMAGY0kEuqrrN01oMuQjMpLFCfVDVYVuODrcc9ezn605jAViw8XxR1j3lKGl3+xU89BHtpMXA4OplwUN4BinONCsjOA3Kg0HwjLPOkev/3/fl/k1b5OFHdshsoSIPPrRZvvq1r8upp54mHR0d4nK5NKUITVKLdlbZSm4E8ND8NiPRZEZBuOmRRxU8xMoAHsaJJ5+qFmSoTqp3UIFDdCVtGzMDq9TK++WvXqO7fzZf1CA67vfehx7RLFtfNL0beAAx8smmhzeL2x/U0JWlKA/Wb6y+NOwFPHYkoWpNbXrt1NUZn5jUXmds0ndd9gEFT4iiokuYWix4sPO4Y/3GGR1F/EjqHP/hrnuWBg8yT6O2ZSnPSo2EyDsYCX0UjU70S4c7JMee+BLNNkVI3bpzXIH0yK4JpTyOLrc2oQ1nqeBQ7168GNviBpELlAUQetnWKT/56c+U9M8WyjIxZVRnKpyPjdOv3fzdfPPNsnHjRlUGityj9SuJSG4EFT0u/nhKApGYGhwh+bxnfHpWg604f9l5r9bdjZsDKzVOSqznNEhDrmHxLnzrRTp/OJRtHw4cwXjDkf0M5Tm9ToWr4Hn44YeVzRL3tBR4UPlpiYQoQc95rMwMWBey2pWf+ZzesNWWp4oif/Pmi3XOWj3RZcED20JgBjxQeZoDuwIRcbR1yL0PbloaPDZrgh9HYLYyD2EVja58qA83yXMspnEW9kmsb614Yv0SztBxJS3RzKBamLF5WMozUSjJjqlZecNF79Qd7+Xmc0PiCiWWpTyZkcPUP4T9BNP+fZu2KHCws0ApGWMTRi3nHuxfIZ+XyYkJBQ+bgwxs3gtl6B1B9Y8peGKpjILnT3++W18HNLwH7enk087UgK1U75AK6/T5TPWPalk9FhDwvPJV5+tPQt3yxbLKNLAuTzCqbJZrPuHk0+rgKRkH9J6AB0qNtgnVATT0mne0d8vwmg1KxSjOZNfvFa95vbaRxDaWXbVxWfAQCO+JY5bp1+A75EDA4w5FZPv45NLgsY5R++NQHkIpoDwrkXmowIDMA9vKDK2XFqdP+T1e+RNPMTsOtoW28anPX60CM+ABOABoOYEZOw9B8vSRuuS9l4u2n6zacCanDWgmp8vyk//9hfzrR/5drrjiH+SHP/wfwxuoL01AE5SnYizCFjyeSEyCiZR4/AHpcrrkvvsflOmqAdBSKVwICMkI6tiuoDgsII11NcKvpVPe/Ja3KniYP2xLsCXaFEGtYHeY+gGP/U486rx3peCBbVHNC7bN7wMepTpNHfLKv3m9ftf4+Lge/+nDH1ETCe/VxIJQelnwoKqjbeHbQrMFPM1Ot4Jn686xpcHDnQMg61Xf8NRnKMoxMq2E8ihwYv3S4UX47Zdk36hklaS3q5AJ69o2MaWs6+qvf0scHd2SHFhlqE6qb1nwECCG8A75v/MvD+n37JqYUhcBlGTzIztlcHidOBzt0t3jE58vqE7Lwf4B+f6NN1YDuOm1WW2eWxHJDY8I4Amn0tLc1iY4OG1LBKgHAGCxoTxdbr96srWzMNcbz0pqYFQ3GBrl1V/6b+3HAeWhYR3XhBymBsAlwbNJPL7AsjIPseCwEpX5kEciKSFMA4324ksuVdBg54FtYudp6XJLZmiNGglJlVpO5oFtAR4oj4b+IuS3dIg/lpBtYxPLgwcjodZhFpFnHv0CdTH0hNMmCF1ZlWVZJIzNZVv8KJJ6dnSjOhl7QqSCGM+s9W2x27dPzsj11G9u7VLPbWJglXhiJtnMxsvADs0wv8E59gpaMTFpNLxlV7NA7F7Gcce/WDz+qKSzAxJPZCQSTUhKWVGTRKMx9dvBsopsEFWVK5IbGhZfNCbRVEYy2Zy0tLTI3Xffo9+n81D9jWNe8EL1ykeSWfFHkkJfcygquWz09Gzt6tHOzlwJdRutzHPT//xYmtq7JNM/pIHuJ5x8qoKRecBtYijPJqV6y8k8eOihPFBohGTYpXrVW7rkjW99uyCoW5n1tDPPVlkL4Zp+rgjMRtkZNBkT1ZI4VvRgLQmnwTlK2Tm02kh2UCkP2TPKwhvCMWyNnjkhGcgH/BVLIq84/3XS0uVVDzm7nlxmI+vYjEPKdrADTUorgWAuhObMqAILlkfoBGokHm2Mc1AfJu66G3+ockvv6HrpRt5JARIbX1I/WhABKmJ42OEDo+ZmuCEmHy8yC903MKwaUyyZlVgiI75AWEeC+J5IXAEzNWvYm06GiAyMrBJPICTJTFYi4bB0tLbKfff+RedgulpaljIjN/3gZpWH2juc4sXGk8hIPJkVh6NNXO6AxmArIEv08izLDCxSRN53xRXS2tkpsRSdh5vkBSecoPefxxWEPJWflc1bH5FuX0A71SwlMPviOV1Q5tWDgkE2i1rbO+St7/hbwUFrQzLOOPulCh4yNghj0ajOWryyybPTALAaiEzJHEQD5TSxrMQ0nKZTnvas5xhupEWd6gVOAVAdPNUtnK+2uH79my6S9u6AFn42SWMWNOZoigXVwUMMM20fNRxVK272arYAmQF9Q6M6WRjGECKv/e6NSm4x+AEeQLIUWWW34UknNAIVHY2IkjFcMrUSOZ736tfoa+3OHgURxsJkFrLequDF9sKCAWKOhIMOr14ngUhcEsm0xCJRaXY45MH77teIuAIthfhiNlOxJHfddbc8/9jjpKW1QxyOVh1r1x0u/3XVlzSIHcDMkL6kdh4DnpE1q6Wlo12GVo2Ko6VZTjvrTCGFbrZUlHzZaH4PbdksTp9/WfCwgYixATyABnlH2VZzp4KHSy2ViLcROf3sl2qwHNZtwKO1lHYDDyAylIi5xxCsFVBoA5EZ0KQHjKYvfslpOg1LZowS3MO7JieNxH75B/9FwRNMQC6zDeXJFgYPaRwUeSJzAjAQS6IqaluXOkaZVJtn9K0bbpJOjH25ISXFeH6XA0+qb1gT5Fo7XXLLrbdVY4AN5SGQnDSeY48/SUM61QaEHaipVV70ktNV9sAbzjXYI0AeXbtBXQ1QJr/Pr+DZuuURAxocjbN52bVrTIscUWaNBXp020659We/lN/fcadMzRRNv/Kq+r99bKxGWa79zneU2jz16U+Xbq9Xz088+WQZn56W2VJJB9fz4ObN0h1YmYUZ8LCRVFiPZVRlx3IN5eHa8Kgj7J/98vNU5rHgYW7rmRKG8mjCXwN4iJzAjoYTFxeQ2tJaO+Tid16ycvBQh44L+do3rtMyY4DHoxmby1Ce5JBSHTQzwAPPVDW2tavGatjtsK2vfvO72vtSG9eicqqNox5fy81afqw7LpFT3xPWXQBx3IkvVja0bYfJaIRlIAPh9b7rLw/ID350i3zzuhvkwc1ba2Dht1ks6/mGEhELHI6nJJnOSSwWl9bmFnngvvtlllp8TAJDWSOhKsgzVbDY7kAVytCUNW+K72bMlgxlS2Ry4g2GpavHo7HaHa4eOfHkl9Re53oZj2zfKd3+8LLuCdgWVl8AAcXB8KjaVqtTZR7mgFgeAvle/qq/kZYujzEqLkh5rOxTDUnVTd+nmhlx59qjveo//Oznv7Ay8JSLVD81O+yOP90rrU6fsq2ANltbGjyQxmButLboAIJiUMTeDK5ap6DB6mnB0+r0at+KaNbkdgGWxS3YOXGHE6oqo/oCoH/5t3/XgCwmDVvM9mo4xLaxKSGEgt+x41vX3yi7pvKavWGzVXkNMBJiGoolxesLSGdnlzz00CaDGFjcTF5I9H/r296u6S38Fuxy59h0LdWFIhJQsZ2TJgiN7117+JHS5vTI8JrDxBdOSI8/IgTFHfPCF+k1TcyWZapANklZtu6clOZOtxrmlPou4tvSmOh4VjVgpy+izX9xUWDnecvFlyhwKUTJNQIeAu4RslVTTlk5x6QW16mO2aQ699VUKUCKLSmS6tV5xhCr+2heiRU087rMU66YHccElUQmpksSzw6JJ4zj0AjM9cqaA9UCiVWZB0ce6RsZMihM43hCMAEP3XUJy0QUR97B6nrtdd/TkAFCNtBY1HaxJHh61bLs8mOt7VX1t7PHK5dcelmNkrBoYzMlVeEJecCnxvH1F75dtSOAO1kw3m6uhWpn6454mhr98Fn5A2Hp6OiS++57oAYeS3yec/SxEo2n5Zaf/lwXyarwHMenirUYott+/QfpHV4nXo0o6JcuT1hjpuk0Q7HIM172ar0+fp/r4Xj/5h1CMcmaC2gR8ESyQyrzBGlCW7UzJTQRsEMuePNFxihZpXqnnHGOzr0qHFXWZNjW7hTHas3ELWvUY9+oskas6C2dLrn/oYeXBw8yT37GpBoXqkLlc449SZy+uAKlETicNwrMWhuG1A0tdDmgnlwQTBys0x8RfzStC4czkiCrH97yM2l3eVUj8EdTQsulpSlPr4ZPICwOrjlc1eQ2p1s1OaIU3/mey+SH//tz+cltv5Y/3vOgfOuGH8gFb75YLdzs6tzQGnnpK18rp579Cj2eds55cta556vfyRtOCpkRaFBNzW1y/wObdPNY4LCTMQM0tXRKh9MjzzvuJPnsF74iP/rpL+U3f7hbfvXbP8mHP/Ypef4Jp4qjzS3t3SEJJfolRr9VzPyhtNAoraMnLCPrjpRzz3+TnHDKOXLKmefJGS97jZxz3uukwx1RoXYpygM7wc5DaCkUBwu31bYu/9C/VlmmobZPf+6xSj1QucmGoIJJndoAICsW1E0hCNZoWlTygG01d/ZI3/AqrQ6H7W9JgVlZVpVtWfC8nL6hPeFlZR7AQ7oNP67Cct8qJZmEX2LvwRP+5we2qHWZHbdjYlazHzt78Ijj1OuoaVxG3rE3Z+Qn5B7Ki0DN+D5YHRQLWwvmAPg7bAEKht2F38Opy8AXxrGtJ6CDggFkhfAehE+oI+VOAuGEalAPb9mm2hOgYcwURM566SulxxsW3BPNuEfae8QTgqr61ZwBVQEAid7V2tOT5mi2SRqd9nhMu0aOzV0B6XBHpTuQkqZOvz4OU9q/qjarNX+RkAws8qQFadEICke0uaTLG5Y/3H2/skPkOCjw6Pqn6L2RAwc36ApnaiLBwu6lXtW01I9JO3Ot5tEuzzvuBGPiQA5ekm0R61KlPOy6qdmKXHnVV8TR5JRI1uRjUTmc4UWjgrwiSFNNigj9pPFz4cDDlG5Uyz6lGPij/uPz/12NMzYk+677NqnbYt3hT5HTznmFHHPSaVroAIOWpWCQUqzK+Nf4vvqop+oAAIZxqO7dkTShYAxZql3ue2CzTphWjwU8JZFTzzpXOnsCEk6QToR/q08HTe/DKTrpUaJ2fpna+fWOl348d9MYu5dhKYY6YGFmHgktffaxJ8qajU+TE15ylvzPrb/S8JId1EsWkV/+9o9qQyP8FTAoNatGEDbKlGxyXaPq3EF58IOxQa3z+UP/+lGZzpv6PEuDR/0SFbUVIPPAz++46wHNdaa+SyBl5B4LILX9xHoVOIAnlDJaE+yKCwBMxiqaljZ3SBvYwhTh8/c+tFV5PgvDDSPgXv2N76pZnPwmm2pMUSdCIglosjdbB1AjmPbtHPAFoVqOdtm8dZfKe1wXAi07+bRzXimdbthRtfJEok9joMPV5Eao7tzC2Hv2uNEAC/uug8ae92myIxTnHX93uZEfccnsmKydc52EzJLSg1yEyg3lSQ0fphUwLHDqLAvw1DehK5TSLA82P+IBig5x4ljLMcQuCZ5SoaiqaaFQVJ5PFXAWenjdkVqiI5JbpZ1ToDqYsAEPPixYFtSHHQivBDC6wEkS9SiN0qeCGDlXwxuOlJ0zZQUOhcFhYajX3LiWWGl2qdYBxSFvnUnESWf6sluXxf4/cr0uX1TZ532bHtXr4prQiBC6TzjlLBV+udcwFc+q966ggeosoI3OlxGXelynOpZdW9DYY59kR9Yru3rDRZfIeHVtWB8GUZG4bGhlhXxJ2AY1AgY3PE0cbR5JDG+osS0LTrMJ6+BBWMbOA3ianV6tOoaCo8rBbm1DTU+SmrZljYSAB7aFtsWFnfWKC6TdE5Vo72oJoU1V2+4AHgLdNQuBUE5IuYLHkENAA/tBCyNvCAsmz+Gs+8SVVylgWKCdE9N6DuVhEaiMwZFhW2ubvKO624IJ2J+D63KHktLU0SN3P7BFwTM+axaFOTjptJeJ0xermS0oWaIKQ7UIg7kWFn7vBwWXzOctYBqPxIYnpM0dlPd/6CNCKK8Fzq6Zsvzo1l9pqhRsl8hCKErv6o067xSd6Aylq0KyBWedZQWqRbvY6ACIcNemLo9+H+tDfpoqD0vJPIAHoRkTN2/GfgFl+OLXrpM2rZszouAxVTMN5QnhuifSMIq1s1fJJRcO60J4JuuCYt9UCksNb1CeCkmlDiH2miOf8Ww59oUnyLOfd6xseNpztR87PdnpkmwLOnG+PxZnqYWFwkGq27v98uAjJm+Le7c7/IWnnCPdwVRN64R1W0qiMmDVqKn538gZezg8hL3MiZNqBA7nRnbsCSdlYM3hcvQLXyxPeebzZHTDU2Vg9WEaH02pY/LquQ/Uej6D9te39kitXDL3+6ssi3IqcXqPZpVjkGCgdQ9buuTD//4p3dQ7xydXDh6MHFhS4flM4P1bxtQ9AatC7qHplxWYoTwqLMaymmZDfAtWUAseGzhPvTsAALI1Drd/VJyegDh7POJ09UgslVUfl+2EjJxDWAAOWcAzP56okX/vj3OujZ0N9fnW//sf+cM9m+TXf7hXfnvn/fKbOx+QF515nhZIghoq2wY8qh2ZEAaAaQCASrw3Y3nwwGYQgtES3SFSpjOCsRArM4+xOKNtxvtGNPuVllbxgbXiDGUk3Ld6HjhNCAyxSYCHI9+Pb4uMEmSr3915r4JnYnp2efDwjmK1w+0kckilTrZPOO3l0u6N68RZ1mXZFkIjKbz4sfQiIINoXtUgMvV1pYekzZ+QNNGAvqh0B2Pq5AxGYhKLJ4Qj6jRprsg7th4Pj9WjX92V+wMoC30H4KFzIWnIyDWdHlJluoTWUEQO0NADisvmATzcExSVSAKCp7wcFTS94sF5ucfDVsiwbGV3yoMsQoAW1l/cE9h6ABAedoDDY0Iw1LYWiGtevKXYC7EtVRIawMOakUvPfY9seKrKUeTCgQNilJYUmKE4U5OTal21AWGY3KE+n/niNdLsDKi9B6rAJEKu2YmwFyaYch7BJKoyFGNQBxev4KGzXHZUOvxEDY7oJHR5gpLI9ku6t1+Ik0n0r1ItC5kH8PA7HLVOD2aBmkxgZYP9eTR9N41AbNwluVGqiFLZLKoAhuJaqss9YXyD+gAegERdGy/W370afNao1czZQtoWBj9MIKnB1QoShGKtghE3qjUqPLlWtrQLQGj3xSU+sK4mLLNxzPc3yDwJKr5lVV4FUDhaSRlC3tm2y3R3JCPDgMdqXfMEZo0irJbPwL9FjAyOduwdoA8fkJZ8Ja4kN6pFnKjB7MuYKvD2ouC1Ziws1NrXjbRvvMSc28/sPnELfw+/tz+Hva7dj7sv5uK/C8j3dtTvZ6E52P267Dwvdqx/H9frhjXjgsBxrSy3/jpUTfPRvH6NW8Izz9qDAeRfQnjn4sOUWalpWwu9aJ/jS0ieJywRgbfNE1Fztz+3RtrD/eJOjSq6F77p3Sf/yfcd2DkBPFBLwAOIbPk/KBG1s5FRKe3X1dUlJ554ouzatUsDy2BDBJjxZ7HQeFwxeG7+0U+kqd2pGZsIvpTO9WVXS0ekX7q1EDRe9wM7KU/+3srmWylPrE9LHSvrSg0qBeLcj1yZ6le50+FwyLe//e1aRdzFQGMBtGLwUIRx3cYjpQNZZWCNIriLvOaBDdq8BJnkycVc2WIe6Hmy4LHyJ2vVQ3JmYkB9X4CntaNLYrGY7NixQylNY391zi1gGo8rBg9Owk98+nNqhcXzCt9s9SclPnz4k+A5xCmuYVvIYqbEHKYPU3Op+piM1qYWee9736vA4R9FEwio568RMI3newQe4n9JBsSzizTvpFg07oqqkexA76gnf29PKJ0RrNVZGjcZEgjhOERZT2ot3nPPPQoWsmgYFjjIPY2gsec18Bjtqv4mq5qZN1Zkqlrf5v0f/CeNXkNDQp1uDyTFGgGfXMw9WcwD+V5jd2PNsOc0Oq+18FR7t1zw+jcqWAAK+V/8cc7QTNuaJm40LXCxLHgAEW9E5oZ1bds1ocHR2BnSQ5ShTRk7xyFOuh/PwIYdLTTMPRuKo4bbalgLcUEYG9GcMc7iE9u6rS7rWKqD1mVBZKlN43EZ8BRrxiG+BGMR8R3v+8CHVPbBFI5JGx8WTlBbVwaKhGWYxwzrp3o8L+DBvDcDnPlGUyhblVVVKQ5OT4LpMAr2j67XdCYyS1/7xgvVrtMIjJWcrwA8BkAT42OKQqgPKTTkbZP9gNUTABleWgcL1mf8U7gbDubEPhF+24IH1VtV8ZoMaizJsCt8dwCHqh6BWFrTp0nIbO5wKTdBbFkJYBrfs0LwFKVYIAhAtP4LAPrUZ69SckcmJzw0QDWNOJGGpo4v5wAH98KTAHps5ZuVgIeK9p0eesX2ahEs0ojJQnn3e9+v4shjCh4kHgA0O5uXHbtMMccNT3maZkGQS2Soj6E2FkCW8jwJnoMNHpO6BMWhqlmimklLUbGS1gAAEKRJREFU7woIAeMxBU+xMCuFvMmuQHim9vGPfnqbWp3x8mJoQrZplG9gXbANqNATgX0crHtcjvLg8KSmkHbNoQVWjMpqLfKjn/yvAkfzvfaebRknqHWGwdesC17KRbqyi1RKCh6cZDYzEbvPpe83RRtxrgEcG0ZhgdQIpoM1uY/3310JeGwUA9VcAc5rX/cG1aC3PrrNaNILqOKN8s1C5yrzQLKs9xwAadZomT6ERZESXcAKNfCgxtmiicQfE8Q+su4IDUCCTeFxR9uC6jSOx/sCHsz7Wwl4UHAo+ImcQ6lhyv5qnA5cZGpqj4VlwDQXPOqGr7riqzGrlvKUinltI4nQDNt65NHtSvLIFSKJr8nple5wSjMdbLZDnV3ZVOVG3m/USKtOmmPj60+kc6tSox2ZUZ+X3edhodimetNZo7IbMNfjdkiuDCdMqvZ1N3xP15A+I/ZvIcqy3HMLaFuNKltj8I8xFtovhFrZQcL+ez/4Ic0XIiAJ31eXPy5hGmDk1og3SgTcoPgYNQcqcSXYh7LiS5rg+IO5ew/ub5u07SD5Y7Ruqg5tAKO2GgBkNyDtj+ygm82Qtrd2E9GorZH6lfJT1Il10MjDZK/WLYTqvOHNFypwKEJlfVf4sey67smxBp49+dD89xYrFdk2MSlHH3+SdHgCarXkwl2BlLgCGYlkVos/PmQAlLAAspF3WfEmaYzyxBWqoTYAJ6SjVwFkQWQAZMHD3AEcC5ph8STMCGRGNV6ZuHHN1xpcI/RHJ+a5d3iNsquNTz1KuQXAodo/f5s3b9bj/DVdyeP9Ah6VmSjOuH2HdLh9Ktl7I2lJD6yVZmdI4r1rFThKfWrgIcvAAojwgCc6eCgkPhc4UKCFwWMA5FGqA3iGtK8rVn7Ag80NwyBcYPSwI9UeR9GCu/9yv1Cl3oR3iTz66KMKHIC0ErDMf89+Ak9ZtH2yiPzwJ/+rlT+pRxiI5TRHuzuQrmVUQn4NzzYpKjbb4IkOHoACtbEUZy7rspTHsK75bIvHGGOx8tMZCJaF5R/fFZkV+K6++72blOqgGKHw8IfTk799EpjnI2pvHs8W6CpjahxTEIgCBp5gXJK9oxKIwcfJJDWTYAU+TOk0SSVtBY3h4ModB/P3rcxTl3cCtdx8hF47d3b+rMxjjrohtTakSTMmb4v8LVOCpV3+/VOfMalU1X4XQAZ5x8YmA6C9WfP9QnnKeN5R56Usu3btVLJ42fuv0IKPYYojZoY027IRPMYPM1gtd2aj+g/mAh7M365qRY3C8hzwNALICs6NR8Bl2BQtBsjfIpEPivO2d75bMyGojEb2J9Zkys8BFiv3HFTwYFCkZMHYTnhoWR59dKuSw1ef/1rpdHnFH0kpOYZ/Q12gMobqWPCwgw7m4h3s3zbgAQALD15vBND86+U1k3dOyjfJgDS9fcGJJwu5VziyMakAHPqOQXkscADR7OzswaM8GvNTpI5fQWamxtWgWC6R+UNhpJOkqa1LEwJVANTUlEbwmFJnsLInMtuiJ/zCwLHPWwCZY90OxGNq6gxo33VqRENxNh71TC1+wLa2dRIt5bHGQWKTbezOQWNbSnkqRSnOTIhUjCtjanJcwbNz17i89NxXqgxEBQdiSkgKdIYzEsytknDfWumOmlyiRl+Yda7i3sBi/fgGFhSZ3LX6mA8k6vNQuobnKZrFkdRg+sxDbWjhRB95bDnPf+GJ2hIT4BC8x1EzP2tGYGMItnY6jgcXPEXqFuMHK0ilmJfpyTGZnTHhjDvGxuXFp56uAPLSp6oawkoQPR2GQ9lVGkwGUAgia/SHAShNOX5cszXAUwUQhtMqiOYDiEIHNC+h/wY5//1rDld2FU73KXDIgHj+cccLmS7KoqpHKqRqsao54AFAdhxk8JTxuFdKkp+C+hgZaHxsh0xMmCLb3Mx7L8eJ2qYszBNOiyuYrGpgdc87wGFYKsSxEUyPXwq0HIAomlUtFDG0Wms9ap+wLIUzA+rsJA7Z9lLdvnOs1oCFXhh1oFjANB4PKngoAE6jhrLMTIwbhyrEskI/hLzsHNsh+RI9zkvysU9+SgHU5QlJZmC1muIpT0cutmVVjUFlTwTKYxybKBIYTeuG0zoFymmLKboj+uIZteIn+4fFFQiL0xeU1q5uueQ9l2q0A8Lw9h1G44Ud8Rjt6hAHD1gBMFifyjIxvlNKRRxvtNsuSqEEKaXqQkW+8a3vSDce3uZOcfvjEtHybHUKY4PIOAIewjwevxSnGrxeq+lTB5Dx/eWM/49SKKle8cVS2oEvnM5pMxRHS5t88Stf02lHbuEPQdj+jY2N6WtGvmmkNo3nB5HyaGGEAsWhqm1i9MqJPJyRQnFa8gVaEpRkJj8t23aY+JHf/+FOWbv+CHF7wxLWBqzUHiSgnkKMJqQVCvSEoTxa4AkttO62UYcxTmOtIjIirmBUunwhyQxRCqVNXP6Q3Pbr36gdZ8dOk+lggUPmg1XHtddYtXDFwhToIIMHeFdoIU3jek0YgwSVFDjFEv2+81IqQ4nM7uDVzVselbPOOldoZtuDSb0aLN8o80BxANATgfKYAlELg6fDF5S+1evFRxRgc5ucctY5sn1iSiZmaYJiCD6AwWZjU2agRDRww5p8SFOeKayXBhfaJWZqalLy+RkpV7A8F5UCASbAMzs7I1NT1cSyssjnPv8lcbS6tGIqUf5oGQGce5SsS/RVK4NVybsaGY1/zFipGzMGrN9sT4/mdxptJ3t6buQV46+bU1ZugZyq+kawVuLGzxm2ZeQd6h2hnmekf/W6Gpv65JWf05mcoQwgdpxiSeUdy6o47ty5s/awTnnqYTQGTPXHB01VNz8M6bPDZhUSA7TQsK+b90NK//LQFq3QTkHvVpdPiPYnUY2KHBS0JEmf8iC0ZArkVosnNSwuWhumRiXQu1bbNVEi35seFk9qSDvwaBceKnhlRqpukLpF25bT5wgIWSystHsz+CwOXneyf84wlMQAmcKSFLiiKJRWk02gUQ6JNzYggeSwFvIEgIRTcN9Ue0/0DYs/npaWrp6q/eYE+cX//VplGAoSWLbEcW8Wf18/s598WxYMe3fUXVCtx/xfV39Fq8NjJaVZCROJJkZifnxovdYFavWnJNS/XhKrjpTu5Ki0BnPSEcppwYXu+ID0JAaFIwOQ+TKjQiGqxcY+gyeZM+ChG99uADLgSY8crtEEHb6E9ERy2kY8lB4VX4x21/3SWa2axv1Se5CqX/RkZx4cbV3yhf/+qtx9730KHENSKkJ059iuHZrVsq9A2JvPHzLgod4vvBsy/PCjO+R1b36bmbjOHt2FVOls98a0GFF69VOkI5QVR3dUPOlRiQ9vVMpCwzg73JQRqRZhmNt3wTbvaDxSVxA7CxGNez4oJQeVsRECVnbhaMrF9YsrnNGwCRSCaG5U61j3hLLio495akhivcZq3O4Ja3FPNFHaA5xz3mvk4Ud3arYKciJ/yDFGyinL5ATJmHsn8O4NYBo/c8iAhyAl0nkQmzgCol/c/ns5+riTNLWZyVQTfbxX2rxxrfAZH9pQAwgVrkyRSZyspmmcO9andWg42jCQBY8NGs7e1hSsy1+N8ktdloJ6IsNFcyPq5MStQLoS4RPIebge8IgTC05dwI1Pf65cf9OPVJNiU+VLFZVrkF/UJ1U1ymKQJZ+ucVEP1PkhAR5ull1FQHYtFURrQZvGZ7f+8nZ57gtO1J0IiPCPIVAjH5BsSJkQIugaB/nzjaNuiGsUvBvO1ThnbSx7euR75gvpdeCgAFClFDmGOBuqllJ2WBuw9A0L7gXK9XNvG59xtNxw8y1aSFSLaM+YjcSmagxYx/UD21IFZGb6iQ0e6921ZJm+ngCKFBEmjom88Yc/kRNOOUN3Jk3uqdRBFVDaGkKVGjU0q6kBLHb9ctoTbKuR3ezJua1kWg9SN6YFE0ZhBHH6r3ujSTXyZYdGJT0wJC3ObnE0t6oW9bTnPF+uv+nHChr00x0TM3rP5MZRC7lU7QFRmyfsIgxmh17xe5F3ta+fOXQoT9kkFZaKTF1Fkw4h0fxNTk0rgLQPgojcfsed8prXv1lL8ZKsj1BJGV/NjGwoHwKwCMUkg4DXFhtQhn0FD8CZ27yEvhxECPK7WY2viWd5LimOtnZxNDeL0+uR177pjfL7O/8s4zOmFwcN5WjkQhwOrJsuhkCkUO1xaheceSHshSze/OwTWNtCnWcHVarJhUQlQpIBki2wABWiz+dswdg2mFBkoy/+91c0BKG5o1t7R9B7i+a3NGEjjppeWgxT7ZyK57sPBV0VQMa3tIdsC0NmfEACtWGAY2KSTZV17SvW3CaO5hahae1Xv/F1mcYOprZ3oygAINpZMhszRQMazjHc04TXCsy6o3heN5fZaBZUB/J4SFAeE4kI+TUgUlKs+w2IMGVWm6gbtRqNXIQbbNq6Qz79+S/JMce/WIOiVMVVNdepHVxcvrDQ+pBk/3Ayp4NGbwwoQzDdLz4avzYMhGceByjkkCM/KieuSEq6kVnS/fpckEa8SXpuDUoEu004I+3dQW3ophpTa5d0uDzanPYT//lpuf+hh9TbRzdQuquXKnQkntZmteS/adxNtQGuZvFWwybmA8cCyB4PJGjsb/0VgMcASKMVF+Hr1k4Ek6MBLc1qb7ntl3Lp+6+Qpzz9WeIOhLVfpqOlXY1tBEw1dzilxx+SUDwl0TSB4wnxEPsLqwMYGeKIEHrx+KelJ5LSc57zJ3vFGYxLk8unJfYcrU5xNHWJoxmh1ykdLr+MrjtCLnjjW+Xb371RHt0+JtN5o0marVCRyekJmc1PqQuHzVKqmJRv43vafZNYkCx2tAt6II+HBHgs25pLcQBNfQCexQAEeCamTNWy+ieMektgFALnrT//pVz95a/K297+TnnescdJ3+Cw9FDxvKnFAKq1QxztTi1U7mhGJqmO1k7zXGe3ed0+39wund6gZIZWyYajninnv+4t8rFPXCm/+NVvZWLKAMVeC4Ah9BO/E66ZCjUAlDmROAB7Nqo292Gs9LsLwIuBxj5/IEFjf+sQAQ/TbPbkYselwMPN2E+zAMSvUMmDDnW6IDhtgWK1CQdHnh+fmJT7H3hQfveHP8rXvvlt+dLXr5VPfOZzctkH/1EufveltfGWd7xLrvzC1fKFr14j37zhe/KTn/9S/njvfbJl55hMlQg4MdqgvQu+n7IlyClcR/2vYvL9tepIUcrFWR2w68U2hl2o+ncsfGbfdyCPhwx47OJzXOhvuUmhgifGMzzINpmN7+Fz7HiESzt4rrHSJ2AjzshSChIYGfZxvmT6lfOY8wLss4Eu6nMlAq7K+vt8v/mjmijnFZmZnlIFQNVrq2ZzRFkoUbqvXv/RbpRGQC00J43PLTc/j8Xrhwh4TMSbmeY67dmTyWl8L+eNAOLxfFDxen2RRXaNEbY5I/liQUcRNqkAqejjmfysMGYLeX1cQE2ujnzVWGdYUVmKaIo1jdEY8pQFW9AUC1KhTJ+WsSlLhRCWGoAskOpgarzO+fdpHz8W4FjuOw8J8ChradjJjVTInvMefd8iQrNCrmKKUmH/QM1Xm1F152sqUPXcvte+R9/PZ6qjyGdZzIb3I5fxmME5rxtZzUBsNk+7qbosY2WaShm2VZL89JRonDcpSYCG79beVBUpz+ZBd5X6NIKnDiALksWOyy30Y/H6/weNRqssw5NebgAAAABJRU5ErkJggg==;" vertex="1" parent="1">
          <mxGeometry x="360" y="450" width="62.18" height="60" as="geometry" />
        </mxCell>
        <mxCell id="9LfVYxGMdytWgAIbFfiO-10" value="" style="shape=image;verticalLabelPosition=bottom;labelBackgroundColor=#ffffff;verticalAlign=top;aspect=fixed;imageAspect=0;image=data:image/png,iVBORw0KGgoAAAANSUhEUgAAAI8AAACKCAYAAACTrhkgAAAgAElEQVR4Ae2dB5hkVZn3q3N3VXflnKtz92QYFMwiIhIUJKMiKq6YUTCwyoou6K6767q66rqiriiuAcWA8ImIq7IihhUDKhIkDTMMkzp3xfd7fu+pU1Xd02kCMyPQz3P63sr3nvM/bw6Ocrksh8IQqYhIeYHB8xUpl0sLjlL1+YU/W/++Srkoi4+S8Gd+ae+OpbJIfXC9c+e1Ui7Vfl/KRZFSQaSUr46C8Pr8zzQ+1gtc4l/jew/UueNA/dByv7MweOxysjBlKVUaRrkipXJFipWKPr/w51cOnkKxLPlSZS9HWYpPgmfublluwfff6+z8+kLXzwGPgQXAKdYGoBEdBT2a9y1FM8zOZ/fvPrgPrqC4L4PrKJthKNBc6jP3dy3lgfoUBEr0JOWZR6pXDi4DnkJ+ugaiMqRdKlIslZSdzBQKUigDoIouNJ/IV0RmSuZxvsD7zV+xWJKpqWkpVJ+zx1KpLAz+OG7Z8oj87Ge3yde/8U35z89+Xi7/x3+Ri971Hrn4kkvlkr97v7zr0vfJO99zmZ7z3KXv/4B88sr/kq998zq55bZfyX2bHpFdU3kFnYW/PQLnckVkemZWpqZnpFTiFfNXKhakWJit32upIPk8j83f7OysFAoFfVAsFoWx8rk8cATgEGFbJSkVZ6VYmKlNaKlUUBknXywI8GHJZ4olGZuaVsAAFaZ3piIyVSjr69MzBRmfmFbZwzK8Yklk+44xufab35F//pePyNnnvFzWrT9cItGE9Lh90tHpkpa2LnEHItLq9IijzSktXW5p7/bpsamjW48dPX6x547WLj33hOISTffJwKr18uLTzpJ3XXqZXHvdDXLvA5tktmioWSOYAPhsnvsyAIbaFAt5KVSBMzExITt37pSZGebB/AGkSmUuFTtUgHTIgEdq9KSsuzKfZ7cWBfAw1flSScEDpYHiTJdFJgplmSxWZKYMBap/w7ZdE/KF//6qnHL6WZIbGBZ/OCad3R5pd/ZIh8stPb6ghGJJiadzEk1mJBhLSU8wLt5oWoLJXgmn+yWU6tPzQCKnR57nPJod1Nf88awwekIJ8URS0ur0KuAAYKc7IH3Dq+Wsl58nn//SV+Se+x/Su+M+ANNMviiTU9NKlSzIoUyAxP7l83mlVva5QwUwjddxyICnjOYhhgLNzkyJZVvIOpbqzJbr1GaiWJHpigjEfrIk8ps/3i3v/4d/kbUbj9JFhEqwiN5wQvzRlMQy/RJJ9UookZVgPKNHzhmBeFZ88ZyEM4MSyQ5JINmnjzmG0gMSTPXrY2/MvI+jPfcnequvZyWSGVBwATKXPyrNnW6lUE5vSNYe/lR592WXy+133DmHzUGhxiamFEyNFKeRzTUu2KF0fsiAB3kHAMG+KuWCVColmZmZVnkhXyrLbKkiOydnZGy2IMCMcfemrXLFhz8m6496ljj9UWlx+aTDE1LKkOwfldTAKl1MXyyjVINFtRSDI4+hMADEl+iTYHpQj65QSpzBpHhiOfHGe6UnkpFo76iEMkP6XHc4LQx3NCv+ZL9+zn6W9/I8gGMEkr0Syw2JO5wU2J2juVNWH/ZUueKfPiJ/vPu+GpCgOdPT0wLrsn+Ayco+hxJo7LUcMuAxBN3qOyWBbU1NTao6XihXZKpQUhkHOefbN94sx51yhriCMWn3BMUby4g7klZqAPVgWOoAZfBEM8LRDqhM4+uB1ID4kwMSSA+JLzkg7liveBP9EswMiz81KD3RnHjiffoaR97Ha7yHx85QWkLZEX2e5/hMODdqPhvJKOAsVYv1Diubc7R0idMfkTNf/mr58te/JVPTRmCGTQEgZB37B4jsgh1Kx0MGPFCbcmlWB+czM1NSqQrK23aN6Q799FVflKc99xhxBSLS5g5IIJmTaO+wuKMZCWeHlWpAQaAW7H5LTaAOUJH5g/fxHoDjifeLNzEgvuRg7RhID+tjXgtmRiSUHRV3DBANij81pJ/h6IrmxMvj5KA4I1npjuT0O/ic+eywBNNDAkXjuhL9qyTeNyrOQEypJex17frD5KqrrpKpqSnFDGxr165dNeH5UAKNvZaDBJ65thasxxVkm6q1GNBYQRnt6rs33iSr1h8uHW6fNHW6JJRCcB0Qbywt/kROArCI9KC4WcQ47GfIACLWK54YbCerz3POexic+xL9EkgNVinGgC44AGLBe6K9OgCLfQ7QOEOZGmh4HwADPIHsqPjSw9ITN+8HbI0A6/Anar8HiBiwNZWxkJG8QWnt6JJEOisf/rePSalirF3jE1MyPZNXCoxRtKzjwKnjFigLHR8z8Mw1ihmwCBbiIowHEbgsUinpKJeKUsDAJiITs0U9co495anPPFoc7S4VchF0Awi48wYAgoIAhr0ZsJoDMeZeG9dbH1AkqFF3KCGwtHVPeYZ85drrVLNkxvLlOpisTjY+Pq7GRexhC81343MLLf6+PncAwGN8SpMTYwqYQn5GJsZ2KmjGdmwzAILSVES2Txph+J6HtspJp50jjvZu6Q7ExB1KqEaEVrTg2EfwzF3UvQPgvnwHwM2MblSK1h3JSnJwrXSHkipcP+e4F8nP/u93uqGmCyXddpu3PNJgdKzIrp07an6z3f13ZuPuK1AW+vxjBh5+rI586AhUBx3JUJ1HNm+qnW/fvl0nZ9dMWd75d5dLq8sn7T0BiWYGxBNOSjw3tDBoLJgeB+BxuIKSGFyngna7N6rmgkT/qLgCMXG0ueQ1r3+z2oim80W1XGN1RqiG+tQpz3zn72MHHNb3MQVPI4C4wempSeNyKACiisxMIxwi4Yj89o93Kal2NHVIondYgomcdHnDEk71qc1kQYrzOAEPVCvau0o6/QmVzxIDa1Qe6vCGVTNL5IakzeWVcCIjP//VryVfKMnMrDEiIl1v27atYaPOlycfO/noMQePJXfWXjE5OSkM+8cOetclfyuOlg4FSwhLbjxbY1WRdL/4sdNYoCx0/CunPIAHIR8hHoFftcRUvyQHVgn2qp5ATA2c3b6QOJpa5W8vfe8cF0yhuHQ4h12D/X08YOCx1lN2DA5D/DyMwzceIc4ej+AnwqgX7x1Wg1+XL6LuAlwGGNgw6C029lVg3hd5ZX99FqqTGFgrkdyoqvPYhXzxrM5FIJaRLk9QMv3D4o/ExdHcJusO2ygPP/KojE9OK+VGEzvQ2thjBh57M/YIa9q8ZatKPMTNQH7bu1wSjMQklsrK0NqN0oR/yBOS7Mg6ieaGxIOvKdWn6jgAWXwYe83+WsiD8T2YD+L9a1Rb7AokatZpNg6yX+/wWrVQD61eL75wXDp7fOqru+H7P9A51RCVWkyRAZKdewOq/c++HhPw1C+6HuOyfde43iSOwX/92Cekqa1T4pleiaay4gsnpNMbVuMZO67LH1NfEm4DLMHYQ6x1eKFjXeU98JrS/gKaMSKm1RWCUdP6znDI9oTi4g4nJN0/qv46PPmpvmG1DTma2+U9l/29ENdkYptMnJONLaoHqe1/z/x+Aw9+Gf4mJrEMIwaLzFZVy+1jE6opYK94w4UXq3zj8oXVWYlj0h837oM6COr2j5U/99cLnDoAzX3P3yCw60imX+U+XyQlsLEw3v9krzp+cbye/7o3qbkDvXbnxLSxmU3P6oadmi1UQ2R3B5DViPdGHtpv4AE4O3buUtCgDaCQw55mS8b4hx3nuBedKo6mdkF7SPSNqCzDzrKOyfokPh6AsKf3sDBwLJAIE2GucPLi1OXcPiachHl9wUkvkZ1TBQXO9vEp3bC7JmcMW1OWNhc8FjgcDyp4CHKC2gCcyelZeXTHLr14ArUm82U55vgXq8EPL3Y4MyCdvqh6pK2/yVCYPZ3wx8v7lwYOALIeelUOiCVqkAGhTN5ISjBzHHP8ybJlx4RMF6ubllinQqkaY10HTx04y4fALgas/UZ50KCI8ARAUB2MWZZ8nnDKGdLc5dEdg0xDuAM8Hu90c0+45o1+4lIelIK613+hc2KLAJCV/2oyUdU/BmViYFAcXHO4UqDt49MyXTRhukb2mQ8ea1Q8yJQH0ODAA0RW1sEf88IXvUQNXNnhtdITTkmbJ6IGMfVGh7MSzq1SZyMm+ifBsziAoMyB1IAOzi3F5rlIbkQ6vBHBIg1F0pihw4/SEBYo0CT+Qt3chyh4rKBMiCWaFZL/S897tTia2oyW4A1LemithDLDGt7QFc5IeyAlscH10hFMVT3a++ag/OsF39KUxyoNRAA0RgzYuCOexx/W0h1QykTMkKPTLc865ngF0FTBZJvAGaxX3rCtQ4jy7GhQx4nfbWp3SiCWFl8srXIOkXiOLr+0+ROSWnWEuGL94uiJSmRgnXiS9ZAIQiD2fPw1U67FwWOBw8bQgLXUoB6xRBOkZkNHugJJVfNha/G+EY2tRgZ6xtEvUAFa1fgGoXm/gsfaZiwyjZA0109SF7Lm8kg+q2SxmtHw7suuELINiOPFvE7QEzyaGJbU8AaNeWnzJyU6uF58mRFxRnJPePAAkvmyTiNw5oOHx4DHFc5KVzAtrrAJiIv1jSoLSw+ulkh6QNpcPrngTW8zNqCqEZG1nQseUnvmruliQnLj8yow6+LPS1izX25TYyt4xCslKeVNegxxOfio+CwC8rbxWQ1Gv/Lqa6TJ6dMgJyaD2F/4s52IuXEzlsLsG7uy3/nXy7agmovZthanqPa+OQYIvcXugxaWRKMdklByQHqCSenoCcnH/+NzUiB8ioSBKdbQqDbEjpNDtm/gqWZgWqkc8FjgkFNdIaeKRDwCuMQgF9sOlzA+nRcu54/3b5U2T1QFYvhwS09Yz/+6F3XxxTtU7ssL1Ur3K3g8VfCE0oMSJKQ2kpNuf0IcTV1y++/ulImpvIFNuSxTUwTbs55QnX2hPMuAR4qzCpxZ/cFyLcMR+w4/T7g2wnA4OyLp4Q3iaOmWgXVHSocvLq5Q+gmsST324AM8vlSfoTzJXqU8gWS/BBIDEiBUNtYrTe09ksoOKpcgMXJ21oTFjI/vlEplX9nWcuCpFKU4Oy0lSFwJI7jIo9u2K4oBzzmvfr20e2MaUgBYrJOP+GEEvUNllz4+r4Og/F7x40ROwf56xRfvFX+8X8KpIYlnRyQ7uEYcrU455dSzdM2KpXI1ybAsU9MTjzHlIZeqmFfwGGZluabIF758jTS7/Ep5AA3UJta3WtAAoEYWSI/PhXvsKcvy80bQfVZ8yVwNPF7kzFifRNLDkuxdJYFYToLRrFqhP/rv/6EAyhcKMpOf0RyVfWNbCMzVSg8IwXNlnoKUC7MyM0nIY1kFZSNuiTy8dbtk+kdUQFb1MZKVVUc8SxztHo1NgY2ZAKdDYZIfr9fQJ554RsEDgLyal2bAYylPJDUo7kBceqFAze3y2zv+qEUjUHamNEN3z0M2qu4J4j/mlgeZo22Vi1V2hV+8olmMhVJFBeU3X/QOdcqhihPI5AympMkVlNyqjSr/ODq8TwrNj7n13FAeqI+OBvAg84SSg5LIEZGYkHhmUBzNHfLMo58veQLIRGRsckLrHzWq4Ss5r/m2oDYASFXvKuVpjMRXJlUpa0qsVnoQke/d/GMFjoYLpAbU+mkpDbJOdzgjycF1CqjlSe/jlSociPvaHTzIPLAtf3W4/EkFUAgnazwr7d1eufKqL8hEvloiZi/K48wDjw1lnG9EKqmQTOUG2BWJ+SA2DNKjKU3vNXaKAzFRT/7G7hsRgTlnhnrb8ZH1qcDsj6NxDYg7RBx4n3hCKYmk+qXLG5RoJicPPLJVLdAQBP7IUuWPmHPiy/lj3ReiRLuBx77Jsi1DfUq1PKGx8UkFzt/9/Qc1RQZvb90I+OTC7r6wB2JO6uAxoRpzwWMA1C+x7Kh40X5jWenyhcXR4ZQLLnybCRyrpjkDFlsTiJRnW63D4qLxuGLwEMBuhWS85USzRXPDmhf+JNU5EABZ6jdQzxtjvHcHTzA5JAzUdxsb5AxEpCcck9/eeZcJo6lGg9rsFiiPpT6NoLHny4Cn7tsCkZr5ICIXvv0STYmluAAWZSpFYCI/OLvuyd9l8xqKY4PEdgdPNLtKPBGep+xLv7gjKYnmBsXR0i7nvOp8BQ9FFmBRFjD2CPWxgGk8LgqexjdxbqnOAw8/ovE5meF1avyL9q3RZP8nwXMwQQwoAA6x4BZAdZkHthWk4kdiQNxRkxvmDCZURmonF6y5Tf73Z7epfNNY2kWfwHmxr+DZNWayHy5401ulrduvQjJ51dGBtdLqiz9JeQ4q5V0aPL74oHSHcxLOrhJ3lJIyg1qoqjMYl+SwsfucduZZFiu1glK1J7DuLaCN1SjP/BeNwFwnV1CeHWMTEoqnBXd/qztsiiClhqRHa9sczJ33RP/tRcCjgMY1NCg9sCxkniSZqaYMTbs/JoHMgLiCUelwuuTWW29VvKh8W6nMqZE4Hx88XhI8vMHaf0jf+PBHP64xsuRVpYbWaSxJRygj3jRVshb3XzWGDix1/niVmZa658bXFrv/xvcsdG4UFtiVHQjPCNFsKtbFAKjDl5RIbrWyLuxw2ORc4bQGjxHxefkH/lFmKNtHwHypItPTpiqrmmg0BggTjhlzwGM8VdAXqbkfrFqOBQCNHw2L0h8kpWkJtvSwOKN94rbVtBYh3eaGbezOYsfHL/XY1/tf9vPJfnWMqq1H8/bJoK1n0SIk64gPCPLP3DGodiBvJCPNnR7ZNVWU6bzI9KyRc6coTUwgEHWkG0al1EB58rMztXrAoEqT5zEQVUR2TRflm9ffJN3BuAlawkueHBQ3VbRSw9JTDRtdeucMaLQg4abzhwk5ffyDZ/5928fL3b8Fj33//KOXEF4quJLXZYeCB3aGJmbB078AcChfMyg+QoI7vPLJz1ythGJqBq+7Cd+qaJAX4KFyPYPzBvBQSBoA2T8ql+M0o74xlOdFp50jFB8gDpmij9ww4aPB3jXiqpZeexI8C2+AZRdfN9/Cn2VOl/38fPDUgLM8ePxxbD+DCqq2nrCsf+qzdb1n8hgLG3KpFDCLgEe96JTrr5aqt6o5SXtkIVLmg6R7wMPNkDrTFc5KZGD9isFjdtiTbGvheVgePAt/jvnks9U4njnA2TPw4A9zNDvlV7/7s3GYjk8blyYFEpcCjwnwMnk9UB/Ag5AM2/q3T16pgUQUqeYiMQpSsNEV7ZVQ31rptpVEl5R57A5a/LgY5fprf95QjsXv276+2H3a1xc7ms8BlIXG0mzLUh6E6kh2WMNVL/37Dyl4ZnAloKYXy1KZB545Mo/1mlu2ZT3nCMqHHflMcfkiJr88itvflJalfKw3PbKswGxujp2x1Fh85y02qX9dzy9177y23P0v/fmFgbMyyoMdCNsPilC7JyzrjniGbBubVrFFIy2IOmzoF2bOG2Qeq21ZkzRJfODuoUe2CVUYIqk+raZO7WJTwHpAgmR7rkDbsqBZ7Abt68tP4HITfKi+bhZ+7+9/6c/zvYH43FH/rQbKowC1qrtR333xIbUDAR4qsvK5pk6P/ODHt+r6z+aJn5BlwFMBKpVayTeqdpEg/+Wvf1NL2VLZQkvvJ/sl0rtKk83CfWukPZipUZ75ZNWAYaEbn1vliws2ADpUF3/p65p/3/bxnt6//Zw9rvTzgXhOwRNsBFCNhdXBY76vUeakYDkyrClcTksEnN2kK3/0k1cqeCYmjRI1n/LsZueZnBhXPwbUx7KtF592priDMQ0gohoDi2xuDpV7UNzJIR3dsT6tkG6rnlNCX+1BKSyYCa3uqd7cRE6autwaS0t7IoYrEBWKOBKFSAAZxR1J3SGQHkMWz5kbX3oRD9Z77HzMFWi51vrGwT4W6x2pdszJSDTdr4mRw2sP1+xOrn2pzxOpmRxYrQur4RTNnUKNI0qrULfZHUxImEr3oZTEssPiJm4nPShOiodrnUM7dwuDpzOYMrlf8ZyWMKb+NTRnerZo/JqamkOWRT3Tom5hLhW1wDbAIRAIgZn6OoOr1oovklwWPADJlx4Sd1UTQ50nzsfU1suZG291quB96tnnym3/91u598HN2vAMU8A/fvRTChALFjIuqNMHiCi5drCAsZLfteCx9hcDAgMeyz4o0E27JVKA6cjT7vKIN0SZ3C6JqSLSX7N/LfT53lWHKXDeeNElqkr/6Z77ZdPWHfKL238vF73rUml3+cXpiUgsMyT+aFaipHa3uyU7vEGCKRqyWIHdgMeDjS45KJ6EaXsQyI6IM5zSavqdvoimiW/ZvkupD5kWJkB+EfCQAcpQ4NBNr1yRO/70Z2lz9ugXEbq4FOWxpfMBDz0a0MjgoRY8kEJHR4/cfMttgvkAQXy6YBqabdk+Ljf+5OfiaHZptoUt7ghoAM+hHkC/EvBo+ZOmDm3n9IrzL5AL3nShPO1Zz1WPNpXtoVJLgQ8bG0Wc3vDWdyh4mD+SLTmiFG3aOib9wxskEM1qrHIiNyLZoXXiaO3ZDTwGOI2cY1BCvasMeABynCyLdrnpR7dU5R7TOM9QHUN56PlaozzIO7MzJIOZbiuwrf/49Gektatb+1UtBx5/ZkS6KQWrvRyGNY8a4ZpIQ4pUtvX45aYf32oMUBgoSVHeOWaQLSJfv/4HmnFBRVDYFSk7pO5QXhYArYQCHKz3LA8eyp50aDncB7ds083D/SNlXvb3V0hLZ/cy4MlJsn9EF/SD//wRnUMqrvF52i7snJhREO2aLEsiMyxuCmLGe5X6BJOIDak5lMeCtC52DGr/jGBuWDNPTZmWdrnsin8w4CkUpFQpSZnkwEpRz+mDVgMPAhG2HltbELZ19svOFXcgvEeUB/Ag9xCuEUgNaE0eePLLXnWB3iA7ZesOA5rvff8HcuHbLpbPX/1lOeuVF0irGwv2cC1J0LKrQz1pcDnwQLFJuPvPz32husgz2kaSxcf+tv6Io5YED59PUjalqU2OO+lk+eSnPyvvu/wD8vFPfkq2bN2mCzwxXRZk28994RoJRLLS449Lq9MvA6uPEG+1SUvjdbppDVWTWQelE1lzYLVmnRKV2Nbjk+cc+0Ld5LNFCxiO9rwBPFOT5C3jSZ1WoRnwrN1wuHiCkWp3vKXZlmkZNKCUh5ZBsC3AQ9EhJu72P9ylE0ehISbt6GOOlZbWdvH5A1qY2hWMq4wDy7I1aBCcAZPtUHOwKMtyv9u4KOzq+TKLgqfdJXf8+d5aAxLmgGJYzPP5F7xhWfD0BKKS7hvS1paOphZp6+jS+YvG4rJt+y6ZpVEy7qSiSFdPWFyeqAysOlxjlrur6d6N1zkfPL7ssHjTA+Km3mG6Xzq9QfFGYrpmtOgsUuRCgWPAQ6fpGuUxfi2Tk0XkGHaeaCIl3lB0ReBB5oHqIPMAHrQtBGYKDtGDkz6gE7MlvcFf//b3evP+QFDSmayksqavJznultqgebFoUJ2/dplHwdPULj/48U9lKl+SyZm8TFXbICGMPueYY9W+YtnJQuCjyHkyNyCeQFjbKg2NrJJINCYtrW3aeBcwPrBph87v6We9UjyBpFKe7kBSUoPrdmNbFjw9ySHpoWhU3yrpjueEQgmBVJ94IglxtHfKn/9yv35nI3g4nwMeK/PQaY7d8Ns7/qAXijCn5furKR1zVfWqxI51Mj0iPtT2mCk6RHwzKnqzyye5kbU1WWdsOi/Xfud6aW7vlP7hUfEGghJL5xRgyEjYGlDxiTexFKfOtozqyzVYLabxaMIQTDiCed4GhVuzvf28UVvNIhlKYaiLfb1+bPz++rn9XmOv4nmrltep1Nzv6PSGZGjNYbqToRAMEiev+fo3pLm9a1HKY++VHhz0S41n+iTdOyBOt1eSmZxAhd7wpgtlasZUoAVEp57xcnG0uKR/9DDpCaVVduS6oDwWoBwtgGBfHuTKNGVaUHQyEusdkuaubrn2uuur4KEtOdTHjDngwejDHzUFOfv6t6+XLk/ItGDUrnlzVT1DAq0tg9doejaigUdBEgDpndA/qsFj2cFVOmkUV0Qtv+Y710tbt1cimT7xxVLV/ll2QRZaiH4Voqn1g70k3jukxayzAyPidPu0EHggQYQjdpSsjniuTyLJjL5G9GMobmoXYwPp9MYk3r9W2rxJifSula5gRikcrSYpyUZBcWoo0q80O7RG7VyJ7ID4IwmJJNLKOhKZXu2UnOsflGA0LoFoUrjPUCKnoSu2PDD1Auk72umPayvLNUc8XT77xa/K9d//oVx48TvFH4ooIACJYXl2nq1dpgrCuOmPqopLLK39x+KZfpWD3nLRO3XNcCWw8V9+3mukzemVWHZIKLWi1FtVcza7GV4KhSugqna75LD4UrS6NBkxVKx1dHbLx/7zSl27QgXwlEUbBldDUmtsS5FDzk6+oBL8v378P6W12292VJWP1364FkJgKQDyzbCEMhRUJNioT7B6xrFrtHZJbnBUL2CqZMDzte/cIC3dPi0154mhptYtzjbvyOxkO4GmsYdqbzSVTWS1erzHH5REKiPxVFpanC5xtLSJo7lVHK1t0tblFEdTc3W0aDtskhRTfaPij/VKJLta/KkRcbiiCiA8yspemjs0Rht7DII+Kiuts2EXvYPD0tbpFIejWTq7XOJwNOno7HJKV7dbfKGolvZP5Aa1MikbyNHaranXqaH1WszT0dylGwrti2YtZC90+yM6z3V2Vb/vGkWM51SF5hptIxfaCnCdb77onQoayzVeeu55mqRAY1yoOCIE373Y+hmqRKjNiHhIEMREksTD3i6XXPZ+3fCFCtXfiCw1Oe3zHKMGPvT7pl0z9gS6Ba/kxzXgiLyg9Ih4Y1CTXvFB+ri51i7tMY6WtS/goepGc3dQOwUne4dUFsv2DehCApJU/4C84W0Xy9XXfENJ7bXfuU5u+P5N8l9fvFpe96a3yMDIagUClljA4wymxR0bkL61T5fmnph4olm1fD/lWc+TZx5zvI7jXnSanHzGS4V+D21d3coi1h62UT7ysY/LN775bfnRj6jnzcoAACAASURBVG+R6757vbz9He9S5YKONLR7zAyMqtUYq3B29DBlG+TvQzlPPP1l8sznnyAbn/ZsedGpZ8o5575SKRubZV/BwwoSxHfmOS9TexLgQe4k6nM58DAX3sSwdEdMdgU9PwDP2ee9SqaLZVkSPFiWQa4NAnvRaWcr2Vb5g96dSyAX8BCV740PiCdKXRhypLNqgne0dEr/yJp9pjzU/smMbNBOODhqWaim1nY55dTT5Ve3/0Z3x66ZvDAAKjLFVL4gs6WyPsYu8v0f3iKBWFY63FRmXS/tvqS0epIS619ntMKWLrlv83aZLFb7t1MAu2RU6c5uj3z1G9/S7+W7x6dmtDB2oWj6vmNvufHmHylrox4j3XvoqgzLivfjVnDKiWecKxMl09bbhvb+8a57lZLuL/DAOU4/6xx1fWDR5vdXAp6eKKGsIwoeNFytqNrcLs96/guWpzxYlpF71BQtIkc9+xjl3TR+xWazEvAQpQ/bCtM6OmF6I0D29wfbomBChy+mbZXoOZrM9cttv/w/5fXEHWHanCiU9Qh4pgtFmZzNC221keFosTiVN0Bau/Hp0uIKSqxvjco94dxqY49q6pAHt+7Sydo+Maug47vOfNl5wiIDGkwND2/dJpOzBf3eR7fvVMEXJ/LEjCndj78KazoyHwDCNeFo65ZjX3yG9oOfKpnQXr5786M7NGphf4CH9cOhfdZLX67gIf5qpeDxxJFZcXj3qW9RwdPulIHVRtlZkvLww6joCFxM9uj6I5T0Ejlo6v0uzjMb2VYgOSiRzLDKPAh3gKd3yAjM+8K2UN1jfas0mpFW0r+4/XcGFLNGRlPAlKXm+mChuQ9UYo4M+jDwvoe3TUhQnZb9khjcIK3uqPZ0wB5126/vUPCMz5Rq4BmbLqh9ZmxqVquK8t0MAGl/h+/fMT6ln3lkx3it9jSLQPFyZJ3nnfgSBQ8F3SiuDfXBYOoO7LvMg6KjBKAi8opXna9si1YNsK2VyjyN4EH2xFCIrWcyX1yabcGyGh2i/aPrapRnJeBBYCYnCJkHkzgyD5oHMs/qDUfopO4LeNAY0FwICwGQr33jW0xH5GrXXzS5O+99QD5z1dVy4cXvkI9+/BNy++9+L7vGJnRD0A+DBYYNsXjvufxD4ujyiSuU0SZpXG97t0/uuv/hOaABCArMai8H2N9v7viTPLpzvMbCoDrbdxmrOf46fHcf+9RnlfqY/mHrxdHilBecbCjPdKkOchqu0T9rXykP4MHAy+Z/7evfqAKzCteaWVF1hlpNa57Cg8AM5YFtQXnUOR1KiJu+Xh6fjM/klwYPVMcWM2AyAA/NUbkpavwux7aQd5B7XMG0eOlbHqaUR58uyFHPOnqfwYN/iyZmyBLhJPaNVrnnvgcUEJ/5r6tkZO0G9VSjvXgDIWmvakXHvfB42bZ9h04qzVRmquaCux58RJyBuKqx5G4To432s3nbLqUKWjW9mnIEGKAUZ5/7Kknl+iUYTaj29fRnHy3f/+GPlRoBTErPcARsUJUMtZC1SUtEPeInnnaOwLLGZ41DmPc+uGmzWvH3B3gmJsxGedOFb5NWp+n10ZiwsJS2hczjjiGi9Cp4qJ0dzfaL0xeQqUJpafCopF4NxaC8HDYLUm0w9lEsejnwkMra3E3/g7XS7o5InKAi1N2mdvnpL35dy8KYqYhc/s8fkSanR7r8UYnTQ5MeUlV1fTFVHSszXX+RI9C2AM+r/+YCOe9V50uHs1ucHr/QgzOOwdEflFzfgGRzveL2eOX0M85U+xV+JDzQLC4W7zQ2HChkul8/62jtkL88aCgP7Gj72KS+9+af3KrAxM4DlejxhyWW7tUjoRVfvuZaBc3OsQk98tnxmaK8+30f0DmgPRRq/wtPPkNBBbC4DsDz0MNbpMcfUq1W55iiESgcyQEdqkbj5MwNS0u3X7N1O9xBbeJL/9WmTrc847nP181Bo1oo0KYtW3WO2PysX1e1PcNS4PElh1XmcYWp44wzNS6x3ICaPu554KHlwWOLN3FTlvIgMJsqGEvLPM4gQVxrJDmwTmUeR1OnrDn8KJnIV3QB7G5k4iCHWDC5wFBmQJzB+LLg4YYI8Wh3B7XJW7qP2JgW6fH49IiVFjWZDoIOR0vNDtPU1CQjIyO1zFe0Iq5llg0yvEarRQRTvRKKp9RO9JcHN9XYESDYMTEjJ59+toKL+BsMk1h5A9GURhtYO9bWKnVj7mBtJA5c8+0bpNsfFZruEpJy/ALg2fTwFnGvEDyESpDqzffZduEACQD/6v9uV1vL1LTpr4XA/6rXXyiOTq9E+1YvufkBqNW2LNvityx47rrvgaXB0yjzMAGY0kEuqrrN01oMuQjMpLFCfVDVYVuODrcc9ezn605jAViw8XxR1j3lKGl3+xU89BHtpMXA4OplwUN4BinONCsjOA3Kg0HwjLPOkev/3/fl/k1b5OFHdshsoSIPPrRZvvq1r8upp54mHR0d4nK5NKUITVKLdlbZSm4E8ND8NiPRZEZBuOmRRxU8xMoAHsaJJ5+qFmSoTqp3UIFDdCVtGzMDq9TK++WvXqO7fzZf1CA67vfehx7RLFtfNL0beAAx8smmhzeL2x/U0JWlKA/Wb6y+NOwFPHYkoWpNbXrt1NUZn5jUXmds0ndd9gEFT4iiokuYWix4sPO4Y/3GGR1F/EjqHP/hrnuWBg8yT6O2ZSnPSo2EyDsYCX0UjU70S4c7JMee+BLNNkVI3bpzXIH0yK4JpTyOLrc2oQ1nqeBQ7168GNviBpELlAUQetnWKT/56c+U9M8WyjIxZVRnKpyPjdOv3fzdfPPNsnHjRlUGityj9SuJSG4EFT0u/nhKApGYGhwh+bxnfHpWg604f9l5r9bdjZsDKzVOSqznNEhDrmHxLnzrRTp/OJRtHw4cwXjDkf0M5Tm9ToWr4Hn44YeVzRL3tBR4UPlpiYQoQc95rMwMWBey2pWf+ZzesNWWp4oif/Pmi3XOWj3RZcED20JgBjxQeZoDuwIRcbR1yL0PbloaPDZrgh9HYLYyD2EVja58qA83yXMspnEW9kmsb614Yv0SztBxJS3RzKBamLF5WMozUSjJjqlZecNF79Qd7+Xmc0PiCiWWpTyZkcPUP4T9BNP+fZu2KHCws0ApGWMTRi3nHuxfIZ+XyYkJBQ+bgwxs3gtl6B1B9Y8peGKpjILnT3++W18HNLwH7enk087UgK1U75AK6/T5TPWPalk9FhDwvPJV5+tPQt3yxbLKNLAuTzCqbJZrPuHk0+rgKRkH9J6AB0qNtgnVATT0mne0d8vwmg1KxSjOZNfvFa95vbaRxDaWXbVxWfAQCO+JY5bp1+A75EDA4w5FZPv45NLgsY5R++NQHkIpoDwrkXmowIDMA9vKDK2XFqdP+T1e+RNPMTsOtoW28anPX60CM+ABOABoOYEZOw9B8vSRuuS9l4u2n6zacCanDWgmp8vyk//9hfzrR/5drrjiH+SHP/wfwxuoL01AE5SnYizCFjyeSEyCiZR4/AHpcrrkvvsflOmqAdBSKVwICMkI6tiuoDgsII11NcKvpVPe/Ja3KniYP2xLsCXaFEGtYHeY+gGP/U486rx3peCBbVHNC7bN7wMepTpNHfLKv3m9ftf4+Lge/+nDH1ETCe/VxIJQelnwoKqjbeHbQrMFPM1Ot4Jn686xpcHDnQMg61Xf8NRnKMoxMq2E8ihwYv3S4UX47Zdk36hklaS3q5AJ69o2MaWs6+qvf0scHd2SHFhlqE6qb1nwECCG8A75v/MvD+n37JqYUhcBlGTzIztlcHidOBzt0t3jE58vqE7Lwf4B+f6NN1YDuOm1WW2eWxHJDY8I4Amn0tLc1iY4OG1LBKgHAGCxoTxdbr96srWzMNcbz0pqYFQ3GBrl1V/6b+3HAeWhYR3XhBymBsAlwbNJPL7AsjIPseCwEpX5kEciKSFMA4324ksuVdBg54FtYudp6XJLZmiNGglJlVpO5oFtAR4oj4b+IuS3dIg/lpBtYxPLgwcjodZhFpFnHv0CdTH0hNMmCF1ZlWVZJIzNZVv8KJJ6dnSjOhl7QqSCGM+s9W2x27dPzsj11G9u7VLPbWJglXhiJtnMxsvADs0wv8E59gpaMTFpNLxlV7NA7F7Gcce/WDz+qKSzAxJPZCQSTUhKWVGTRKMx9dvBsopsEFWVK5IbGhZfNCbRVEYy2Zy0tLTI3Xffo9+n81D9jWNe8EL1ykeSWfFHkkJfcygquWz09Gzt6tHOzlwJdRutzHPT//xYmtq7JNM/pIHuJ5x8qoKRecBtYijPJqV6y8k8eOihPFBohGTYpXrVW7rkjW99uyCoW5n1tDPPVlkL4Zp+rgjMRtkZNBkT1ZI4VvRgLQmnwTlK2Tm02kh2UCkP2TPKwhvCMWyNnjkhGcgH/BVLIq84/3XS0uVVDzm7nlxmI+vYjEPKdrADTUorgWAuhObMqAILlkfoBGokHm2Mc1AfJu66G3+ockvv6HrpRt5JARIbX1I/WhABKmJ42OEDo+ZmuCEmHy8yC903MKwaUyyZlVgiI75AWEeC+J5IXAEzNWvYm06GiAyMrBJPICTJTFYi4bB0tLbKfff+RedgulpaljIjN/3gZpWH2juc4sXGk8hIPJkVh6NNXO6AxmArIEv08izLDCxSRN53xRXS2tkpsRSdh5vkBSecoPefxxWEPJWflc1bH5FuX0A71SwlMPviOV1Q5tWDgkE2i1rbO+St7/hbwUFrQzLOOPulCh4yNghj0ajOWryyybPTALAaiEzJHEQD5TSxrMQ0nKZTnvas5xhupEWd6gVOAVAdPNUtnK+2uH79my6S9u6AFn42SWMWNOZoigXVwUMMM20fNRxVK272arYAmQF9Q6M6WRjGECKv/e6NSm4x+AEeQLIUWWW34UknNAIVHY2IkjFcMrUSOZ736tfoa+3OHgURxsJkFrLequDF9sKCAWKOhIMOr14ngUhcEsm0xCJRaXY45MH77teIuAIthfhiNlOxJHfddbc8/9jjpKW1QxyOVh1r1x0u/3XVlzSIHcDMkL6kdh4DnpE1q6Wlo12GVo2Ko6VZTjvrTCGFbrZUlHzZaH4PbdksTp9/WfCwgYixATyABnlH2VZzp4KHSy2ViLcROf3sl2qwHNZtwKO1lHYDDyAylIi5xxCsFVBoA5EZ0KQHjKYvfslpOg1LZowS3MO7JieNxH75B/9FwRNMQC6zDeXJFgYPaRwUeSJzAjAQS6IqaluXOkaZVJtn9K0bbpJOjH25ISXFeH6XA0+qb1gT5Fo7XXLLrbdVY4AN5SGQnDSeY48/SUM61QaEHaipVV70ktNV9sAbzjXYI0AeXbtBXQ1QJr/Pr+DZuuURAxocjbN52bVrTIscUWaNBXp020659We/lN/fcadMzRRNv/Kq+r99bKxGWa79zneU2jz16U+Xbq9Xz088+WQZn56W2VJJB9fz4ObN0h1YmYUZ8LCRVFiPZVRlx3IN5eHa8Kgj7J/98vNU5rHgYW7rmRKG8mjCXwN4iJzAjoYTFxeQ2tJaO+Tid16ycvBQh44L+do3rtMyY4DHoxmby1Ce5JBSHTQzwAPPVDW2tavGatjtsK2vfvO72vtSG9eicqqNox5fy81afqw7LpFT3xPWXQBx3IkvVja0bYfJaIRlIAPh9b7rLw/ID350i3zzuhvkwc1ba2Dht1ks6/mGEhELHI6nJJnOSSwWl9bmFnngvvtlllp8TAJDWSOhKsgzVbDY7kAVytCUNW+K72bMlgxlS2Ry4g2GpavHo7HaHa4eOfHkl9Re53oZj2zfKd3+8LLuCdgWVl8AAcXB8KjaVqtTZR7mgFgeAvle/qq/kZYujzEqLkh5rOxTDUnVTd+nmhlx59qjveo//Oznv7Ay8JSLVD81O+yOP90rrU6fsq2ANltbGjyQxmButLboAIJiUMTeDK5ap6DB6mnB0+r0at+KaNbkdgGWxS3YOXGHE6oqo/oCoH/5t3/XgCwmDVvM9mo4xLaxKSGEgt+x41vX3yi7pvKavWGzVXkNMBJiGoolxesLSGdnlzz00CaDGFjcTF5I9H/r296u6S38Fuxy59h0LdWFIhJQsZ2TJgiN7117+JHS5vTI8JrDxBdOSI8/IgTFHfPCF+k1TcyWZapANklZtu6clOZOtxrmlPou4tvSmOh4VjVgpy+izX9xUWDnecvFlyhwKUTJNQIeAu4RslVTTlk5x6QW16mO2aQ699VUKUCKLSmS6tV5xhCr+2heiRU087rMU66YHccElUQmpksSzw6JJ4zj0AjM9cqaA9UCiVWZB0ce6RsZMihM43hCMAEP3XUJy0QUR97B6nrtdd/TkAFCNtBY1HaxJHh61bLs8mOt7VX1t7PHK5dcelmNkrBoYzMlVeEJecCnxvH1F75dtSOAO1kw3m6uhWpn6454mhr98Fn5A2Hp6OiS++57oAYeS3yec/SxEo2n5Zaf/lwXyarwHMenirUYott+/QfpHV4nXo0o6JcuT1hjpuk0Q7HIM172ar0+fp/r4Xj/5h1CMcmaC2gR8ESyQyrzBGlCW7UzJTQRsEMuePNFxihZpXqnnHGOzr0qHFXWZNjW7hTHas3ELWvUY9+oskas6C2dLrn/oYeXBw8yT37GpBoXqkLlc449SZy+uAKlETicNwrMWhuG1A0tdDmgnlwQTBys0x8RfzStC4czkiCrH97yM2l3eVUj8EdTQsulpSlPr4ZPICwOrjlc1eQ2p1s1OaIU3/mey+SH//tz+cltv5Y/3vOgfOuGH8gFb75YLdzs6tzQGnnpK18rp579Cj2eds55cta556vfyRtOCpkRaFBNzW1y/wObdPNY4LCTMQM0tXRKh9MjzzvuJPnsF74iP/rpL+U3f7hbfvXbP8mHP/Ypef4Jp4qjzS3t3SEJJfolRr9VzPyhtNAoraMnLCPrjpRzz3+TnHDKOXLKmefJGS97jZxz3uukwx1RoXYpygM7wc5DaCkUBwu31bYu/9C/VlmmobZPf+6xSj1QucmGoIJJndoAICsW1E0hCNZoWlTygG01d/ZI3/AqrQ6H7W9JgVlZVpVtWfC8nL6hPeFlZR7AQ7oNP67Cct8qJZmEX2LvwRP+5we2qHWZHbdjYlazHzt78Ijj1OuoaVxG3rE3Z+Qn5B7Ki0DN+D5YHRQLWwvmAPg7bAEKht2F38Opy8AXxrGtJ6CDggFkhfAehE+oI+VOAuGEalAPb9mm2hOgYcwURM566SulxxsW3BPNuEfae8QTgqr61ZwBVQEAid7V2tOT5mi2SRqd9nhMu0aOzV0B6XBHpTuQkqZOvz4OU9q/qjarNX+RkAws8qQFadEICke0uaTLG5Y/3H2/skPkOCjw6Pqn6L2RAwc36ApnaiLBwu6lXtW01I9JO3Ot5tEuzzvuBGPiQA5ekm0R61KlPOy6qdmKXHnVV8TR5JRI1uRjUTmc4UWjgrwiSFNNigj9pPFz4cDDlG5Uyz6lGPij/uPz/12NMzYk+677NqnbYt3hT5HTznmFHHPSaVroAIOWpWCQUqzK+Nf4vvqop+oAAIZxqO7dkTShYAxZql3ue2CzTphWjwU8JZFTzzpXOnsCEk6QToR/q08HTe/DKTrpUaJ2fpna+fWOl348d9MYu5dhKYY6YGFmHgktffaxJ8qajU+TE15ylvzPrb/S8JId1EsWkV/+9o9qQyP8FTAoNatGEDbKlGxyXaPq3EF58IOxQa3z+UP/+lGZzpv6PEuDR/0SFbUVIPPAz++46wHNdaa+SyBl5B4LILX9xHoVOIAnlDJaE+yKCwBMxiqaljZ3SBvYwhTh8/c+tFV5PgvDDSPgXv2N76pZnPwmm2pMUSdCIglosjdbB1AjmPbtHPAFoVqOdtm8dZfKe1wXAi07+bRzXimdbthRtfJEok9joMPV5Eao7tzC2Hv2uNEAC/uug8ae92myIxTnHX93uZEfccnsmKydc52EzJLSg1yEyg3lSQ0fphUwLHDqLAvw1DehK5TSLA82P+IBig5x4ljLMcQuCZ5SoaiqaaFQVJ5PFXAWenjdkVqiI5JbpZ1ToDqYsAEPPixYFtSHHQivBDC6wEkS9SiN0qeCGDlXwxuOlJ0zZQUOhcFhYajX3LiWWGl2qdYBxSFvnUnESWf6sluXxf4/cr0uX1TZ532bHtXr4prQiBC6TzjlLBV+udcwFc+q966ggeosoI3OlxGXelynOpZdW9DYY59kR9Yru3rDRZfIeHVtWB8GUZG4bGhlhXxJ2AY1AgY3PE0cbR5JDG+osS0LTrMJ6+BBWMbOA3ianV6tOoaCo8rBbm1DTU+SmrZljYSAB7aFtsWFnfWKC6TdE5Vo72oJoU1V2+4AHgLdNQuBUE5IuYLHkENAA/tBCyNvCAsmz+Gs+8SVVylgWKCdE9N6DuVhEaiMwZFhW2ubvKO624IJ2J+D63KHktLU0SN3P7BFwTM+axaFOTjptJeJ0xermS0oWaIKQ7UIg7kWFn7vBwWXzOctYBqPxIYnpM0dlPd/6CNCKK8Fzq6Zsvzo1l9pqhRsl8hCKErv6o067xSd6Aylq0KyBWedZQWqRbvY6ACIcNemLo9+H+tDfpoqD0vJPIAHoRkTN2/GfgFl+OLXrpM2rZszouAxVTMN5QnhuifSMIq1s1fJJRcO60J4JuuCYt9UCksNb1CeCkmlDiH2miOf8Ww59oUnyLOfd6xseNpztR87PdnpkmwLOnG+PxZnqYWFwkGq27v98uAjJm+Le7c7/IWnnCPdwVRN64R1W0qiMmDVqKn538gZezg8hL3MiZNqBA7nRnbsCSdlYM3hcvQLXyxPeebzZHTDU2Vg9WEaH02pY/LquQ/Uej6D9te39kitXDL3+6ssi3IqcXqPZpVjkGCgdQ9buuTD//4p3dQ7xydXDh6MHFhS4flM4P1bxtQ9AatC7qHplxWYoTwqLMaymmZDfAtWUAseGzhPvTsAALI1Drd/VJyegDh7POJ09UgslVUfl+2EjJxDWAAOWcAzP56okX/vj3OujZ0N9fnW//sf+cM9m+TXf7hXfnvn/fKbOx+QF515nhZIghoq2wY8qh2ZEAaAaQCASrw3Y3nwwGYQgtES3SFSpjOCsRArM4+xOKNtxvtGNPuVllbxgbXiDGUk3Ld6HjhNCAyxSYCHI9+Pb4uMEmSr3915r4JnYnp2efDwjmK1w+0kckilTrZPOO3l0u6N68RZ1mXZFkIjKbz4sfQiIINoXtUgMvV1pYekzZ+QNNGAvqh0B2Pq5AxGYhKLJ4Qj6jRprsg7th4Pj9WjX92V+wMoC30H4KFzIWnIyDWdHlJluoTWUEQO0NADisvmATzcExSVSAKCp7wcFTS94sF5ucfDVsiwbGV3yoMsQoAW1l/cE9h6ABAedoDDY0Iw1LYWiGtevKXYC7EtVRIawMOakUvPfY9seKrKUeTCgQNilJYUmKE4U5OTal21AWGY3KE+n/niNdLsDKi9B6rAJEKu2YmwFyaYch7BJKoyFGNQBxev4KGzXHZUOvxEDY7oJHR5gpLI9ku6t1+Ik0n0r1ItC5kH8PA7HLVOD2aBmkxgZYP9eTR9N41AbNwluVGqiFLZLKoAhuJaqss9YXyD+gAegERdGy/W370afNao1czZQtoWBj9MIKnB1QoShGKtghE3qjUqPLlWtrQLQGj3xSU+sK4mLLNxzPc3yDwJKr5lVV4FUDhaSRlC3tm2y3R3JCPDgMdqXfMEZo0irJbPwL9FjAyOduwdoA8fkJZ8Ja4kN6pFnKjB7MuYKvD2ouC1Ziws1NrXjbRvvMSc28/sPnELfw+/tz+Hva7dj7sv5uK/C8j3dtTvZ6E52P267Dwvdqx/H9frhjXjgsBxrSy3/jpUTfPRvH6NW8Izz9qDAeRfQnjn4sOUWalpWwu9aJ/jS0ieJywRgbfNE1Fztz+3RtrD/eJOjSq6F77p3Sf/yfcd2DkBPFBLwAOIbPk/KBG1s5FRKe3X1dUlJ554ouzatUsDy2BDBJjxZ7HQeFwxeG7+0U+kqd2pGZsIvpTO9WVXS0ekX7q1EDRe9wM7KU/+3srmWylPrE9LHSvrSg0qBeLcj1yZ6le50+FwyLe//e1aRdzFQGMBtGLwUIRx3cYjpQNZZWCNIriLvOaBDdq8BJnkycVc2WIe6Hmy4LHyJ2vVQ3JmYkB9X4CntaNLYrGY7NixQylNY391zi1gGo8rBg9Owk98+nNqhcXzCt9s9SclPnz4k+A5xCmuYVvIYqbEHKYPU3Op+piM1qYWee9736vA4R9FEwio568RMI3newQe4n9JBsSzizTvpFg07oqqkexA76gnf29PKJ0RrNVZGjcZEgjhOERZT2ot3nPPPQoWsmgYFjjIPY2gsec18Bjtqv4mq5qZN1Zkqlrf5v0f/CeNXkNDQp1uDyTFGgGfXMw9WcwD+V5jd2PNsOc0Oq+18FR7t1zw+jcqWAAK+V/8cc7QTNuaJm40LXCxLHgAEW9E5oZ1bds1ocHR2BnSQ5ShTRk7xyFOuh/PwIYdLTTMPRuKo4bbalgLcUEYG9GcMc7iE9u6rS7rWKqD1mVBZKlN43EZ8BRrxiG+BGMR8R3v+8CHVPbBFI5JGx8WTlBbVwaKhGWYxwzrp3o8L+DBvDcDnPlGUyhblVVVKQ5OT4LpMAr2j67XdCYyS1/7xgvVrtMIjJWcrwA8BkAT42OKQqgPKTTkbZP9gNUTABleWgcL1mf8U7gbDubEPhF+24IH1VtV8ZoMaizJsCt8dwCHqh6BWFrTp0nIbO5wKTdBbFkJYBrfs0LwFKVYIAhAtP4LAPrUZ69SckcmJzw0QDWNOJGGpo4v5wAH98KTAHps5ZuVgIeK9p0eesX2ahEs0ojJQnn3e9+v4shjCh4kHgA0O5uXHbtMMccNT3maZkGQS2Soj6E2FkCW8jwJnoMNHpO6BMWhqlmimklLUbGS1gAAEKRJREFU7woIAeMxBU+xMCuFvMmuQHim9vGPfnqbWp3x8mJoQrZplG9gXbANqNATgX0crHtcjvLg8KSmkHbNoQVWjMpqLfKjn/yvAkfzvfaebRknqHWGwdesC17KRbqyi1RKCh6cZDYzEbvPpe83RRtxrgEcG0ZhgdQIpoM1uY/3310JeGwUA9VcAc5rX/cG1aC3PrrNaNILqOKN8s1C5yrzQLKs9xwAadZomT6ERZESXcAKNfCgxtmiicQfE8Q+su4IDUCCTeFxR9uC6jSOx/sCHsz7Wwl4UHAo+ImcQ6lhyv5qnA5cZGpqj4VlwDQXPOqGr7riqzGrlvKUinltI4nQDNt65NHtSvLIFSKJr8nple5wSjMdbLZDnV3ZVOVG3m/USKtOmmPj60+kc6tSox2ZUZ+X3edhodimetNZo7IbMNfjdkiuDCdMqvZ1N3xP15A+I/ZvIcqy3HMLaFuNKltj8I8xFtovhFrZQcL+ez/4Ic0XIiAJ31eXPy5hGmDk1og3SgTcoPgYNQcqcSXYh7LiS5rg+IO5ew/ub5u07SD5Y7Ruqg5tAKO2GgBkNyDtj+ygm82Qtrd2E9GorZH6lfJT1Il10MjDZK/WLYTqvOHNFypwKEJlfVf4sey67smxBp49+dD89xYrFdk2MSlHH3+SdHgCarXkwl2BlLgCGYlkVos/PmQAlLAAspF3WfEmaYzyxBWqoTYAJ6SjVwFkQWQAZMHD3AEcC5ph8STMCGRGNV6ZuHHN1xpcI/RHJ+a5d3iNsquNTz1KuQXAodo/f5s3b9bj/DVdyeP9Ah6VmSjOuH2HdLh9Ktl7I2lJD6yVZmdI4r1rFThKfWrgIcvAAojwgCc6eCgkPhc4UKCFwWMA5FGqA3iGtK8rVn7Ag80NwyBcYPSwI9UeR9GCu/9yv1Cl3oR3iTz66KMKHIC0ErDMf89+Ak9ZtH2yiPzwJ/+rlT+pRxiI5TRHuzuQrmVUQn4NzzYpKjbb4IkOHoACtbEUZy7rspTHsK75bIvHGGOx8tMZCJaF5R/fFZkV+K6++72blOqgGKHw8IfTk799EpjnI2pvHs8W6CpjahxTEIgCBp5gXJK9oxKIwcfJJDWTYAU+TOk0SSVtBY3h4ModB/P3rcxTl3cCtdx8hF47d3b+rMxjjrohtTakSTMmb4v8LVOCpV3+/VOfMalU1X4XQAZ5x8YmA6C9WfP9QnnKeN5R56Usu3btVLJ42fuv0IKPYYojZoY027IRPMYPM1gtd2aj+g/mAh7M365qRY3C8hzwNALICs6NR8Bl2BQtBsjfIpEPivO2d75bMyGojEb2J9Zkys8BFiv3HFTwYFCkZMHYTnhoWR59dKuSw1ef/1rpdHnFH0kpOYZ/Q12gMobqWPCwgw7m4h3s3zbgAQALD15vBND86+U1k3dOyjfJgDS9fcGJJwu5VziyMakAHPqOQXkscADR7OzswaM8GvNTpI5fQWamxtWgWC6R+UNhpJOkqa1LEwJVANTUlEbwmFJnsLInMtuiJ/zCwLHPWwCZY90OxGNq6gxo33VqRENxNh71TC1+wLa2dRIt5bHGQWKTbezOQWNbSnkqRSnOTIhUjCtjanJcwbNz17i89NxXqgxEBQdiSkgKdIYzEsytknDfWumOmlyiRl+Yda7i3sBi/fgGFhSZ3LX6mA8k6vNQuobnKZrFkdRg+sxDbWjhRB95bDnPf+GJ2hIT4BC8x1EzP2tGYGMItnY6jgcXPEXqFuMHK0ilmJfpyTGZnTHhjDvGxuXFp56uAPLSp6oawkoQPR2GQ9lVGkwGUAgia/SHAShNOX5cszXAUwUQhtMqiOYDiEIHNC+h/wY5//1rDld2FU73KXDIgHj+cccLmS7KoqpHKqRqsao54AFAdhxk8JTxuFdKkp+C+hgZaHxsh0xMmCLb3Mx7L8eJ2qYszBNOiyuYrGpgdc87wGFYKsSxEUyPXwq0HIAomlUtFDG0Wms9ap+wLIUzA+rsJA7Z9lLdvnOs1oCFXhh1oFjANB4PKngoAE6jhrLMTIwbhyrEskI/hLzsHNsh+RI9zkvysU9+SgHU5QlJZmC1muIpT0cutmVVjUFlTwTKYxybKBIYTeuG0zoFymmLKboj+uIZteIn+4fFFQiL0xeU1q5uueQ9l2q0A8Lw9h1G44Ud8Rjt6hAHD1gBMFifyjIxvlNKRRxvtNsuSqEEKaXqQkW+8a3vSDce3uZOcfvjEtHybHUKY4PIOAIewjwevxSnGrxeq+lTB5Dx/eWM/49SKKle8cVS2oEvnM5pMxRHS5t88Stf02lHbuEPQdj+jY2N6WtGvmmkNo3nB5HyaGGEAsWhqm1i9MqJPJyRQnFa8gVaEpRkJj8t23aY+JHf/+FOWbv+CHF7wxLWBqzUHiSgnkKMJqQVCvSEoTxa4AkttO62UYcxTmOtIjIirmBUunwhyQxRCqVNXP6Q3Pbr36gdZ8dOk+lggUPmg1XHtddYtXDFwhToIIMHeFdoIU3jek0YgwSVFDjFEv2+81IqQ4nM7uDVzVselbPOOldoZtuDSb0aLN8o80BxANATgfKYAlELg6fDF5S+1evFRxRgc5ucctY5sn1iSiZmaYJiCD6AwWZjU2agRDRww5p8SFOeKayXBhfaJWZqalLy+RkpV7A8F5UCASbAMzs7I1NT1cSyssjnPv8lcbS6tGIqUf5oGQGce5SsS/RVK4NVybsaGY1/zFipGzMGrN9sT4/mdxptJ3t6buQV46+bU1ZugZyq+kawVuLGzxm2ZeQd6h2hnmekf/W6Gpv65JWf05mcoQwgdpxiSeUdy6o47ty5s/awTnnqYTQGTPXHB01VNz8M6bPDZhUSA7TQsK+b90NK//LQFq3QTkHvVpdPiPYnUY2KHBS0JEmf8iC0ZArkVosnNSwuWhumRiXQu1bbNVEi35seFk9qSDvwaBceKnhlRqpukLpF25bT5wgIWSystHsz+CwOXneyf84wlMQAmcKSFLiiKJRWk02gUQ6JNzYggeSwFvIEgIRTcN9Ue0/0DYs/npaWrp6q/eYE+cX//VplGAoSWLbEcW8Wf18/s598WxYMe3fUXVCtx/xfV39Fq8NjJaVZCROJJkZifnxovdYFavWnJNS/XhKrjpTu5Ki0BnPSEcppwYXu+ID0JAaFIwOQ+TKjQiGqxcY+gyeZM+ChG99uADLgSY8crtEEHb6E9ERy2kY8lB4VX4x21/3SWa2axv1Se5CqX/RkZx4cbV3yhf/+qtx9730KHENSKkJ059iuHZrVsq9A2JvPHzLgod4vvBsy/PCjO+R1b36bmbjOHt2FVOls98a0GFF69VOkI5QVR3dUPOlRiQ9vVMpCwzg73JQRqRZhmNt3wTbvaDxSVxA7CxGNez4oJQeVsRECVnbhaMrF9YsrnNGwCRSCaG5U61j3hLLio495akhivcZq3O4Ja3FPNFHaA5xz3mvk4Ud3arYKciJ/yDFGyinL5ATJmHsn8O4NYBo/c8iAhyAl0nkQmzgCol/c/ns5+riTNLWZyVQTfbxX2rxxrfAZH9pQAwgVrkyRSZyspmmcO9andWg42jCQBY8NGs7e1hSsy1+N8ktdloJ6IsNFcyPq5MStQLoS4RPIebge8IgTC05dwI1Pf65cf9OPVJNiU+VLFZVrkF/UJ1U1ymKQJZ+ucVEP1PkhAR5ull1FQHYtFURrQZvGZ7f+8nZ57gtO1J0IiPCPIVAjH5BsSJkQIugaB/nzjaNuiGsUvBvO1ThnbSx7euR75gvpdeCgAFClFDmGOBuqllJ2WBuw9A0L7gXK9XNvG59xtNxw8y1aSFSLaM+YjcSmagxYx/UD21IFZGb6iQ0e6921ZJm+ngCKFBEmjom88Yc/kRNOOUN3Jk3uqdRBFVDaGkKVGjU0q6kBLHb9ctoTbKuR3ezJua1kWg9SN6YFE0ZhBHH6r3ujSTXyZYdGJT0wJC3ObnE0t6oW9bTnPF+uv+nHChr00x0TM3rP5MZRC7lU7QFRmyfsIgxmh17xe5F3ta+fOXQoT9kkFZaKTF1Fkw4h0fxNTk0rgLQPgojcfsed8prXv1lL8ZKsj1BJGV/NjGwoHwKwCMUkg4DXFhtQhn0FD8CZ27yEvhxECPK7WY2viWd5LimOtnZxNDeL0+uR177pjfL7O/8s4zOmFwcN5WjkQhwOrJsuhkCkUO1xaheceSHshSze/OwTWNtCnWcHVarJhUQlQpIBki2wABWiz+dswdg2mFBkoy/+91c0BKG5o1t7R9B7i+a3NGEjjppeWgxT7ZyK57sPBV0VQMa3tIdsC0NmfEACtWGAY2KSTZV17SvW3CaO5hahae1Xv/F1mcYOprZ3oygAINpZMhszRQMazjHc04TXCsy6o3heN5fZaBZUB/J4SFAeE4kI+TUgUlKs+w2IMGVWm6gbtRqNXIQbbNq6Qz79+S/JMce/WIOiVMVVNdepHVxcvrDQ+pBk/3Ayp4NGbwwoQzDdLz4avzYMhGceByjkkCM/KieuSEq6kVnS/fpckEa8SXpuDUoEu004I+3dQW3ophpTa5d0uDzanPYT//lpuf+hh9TbRzdQuquXKnQkntZmteS/adxNtQGuZvFWwybmA8cCyB4PJGjsb/0VgMcASKMVF+Hr1k4Ek6MBLc1qb7ntl3Lp+6+Qpzz9WeIOhLVfpqOlXY1tBEw1dzilxx+SUDwl0TSB4wnxEPsLqwMYGeKIEHrx+KelJ5LSc57zJ3vFGYxLk8unJfYcrU5xNHWJoxmh1ykdLr+MrjtCLnjjW+Xb371RHt0+JtN5o0marVCRyekJmc1PqQuHzVKqmJRv43vafZNYkCx2tAt6II+HBHgs25pLcQBNfQCexQAEeCamTNWy+ieMektgFALnrT//pVz95a/K297+TnnescdJ3+Cw9FDxvKnFAKq1QxztTi1U7mhGJqmO1k7zXGe3ed0+39wund6gZIZWyYajninnv+4t8rFPXCm/+NVvZWLKAMVeC4Ah9BO/E66ZCjUAlDmROAB7Nqo292Gs9LsLwIuBxj5/IEFjf+sQAQ/TbPbkYselwMPN2E+zAMSvUMmDDnW6IDhtgWK1CQdHnh+fmJT7H3hQfveHP8rXvvlt+dLXr5VPfOZzctkH/1EufveltfGWd7xLrvzC1fKFr14j37zhe/KTn/9S/njvfbJl55hMlQg4MdqgvQu+n7IlyClcR/2vYvL9tepIUcrFWR2w68U2hl2o+ncsfGbfdyCPhwx47OJzXOhvuUmhgifGMzzINpmN7+Fz7HiESzt4rrHSJ2AjzshSChIYGfZxvmT6lfOY8wLss4Eu6nMlAq7K+vt8v/mjmijnFZmZnlIFQNVrq2ZzRFkoUbqvXv/RbpRGQC00J43PLTc/j8Xrhwh4TMSbmeY67dmTyWl8L+eNAOLxfFDxen2RRXaNEbY5I/liQUcRNqkAqejjmfysMGYLeX1cQE2ujnzVWGdYUVmKaIo1jdEY8pQFW9AUC1KhTJ+WsSlLhRCWGoAskOpgarzO+fdpHz8W4FjuOw8J8ChradjJjVTInvMefd8iQrNCrmKKUmH/QM1Xm1F152sqUPXcvte+R9/PZ6qjyGdZzIb3I5fxmME5rxtZzUBsNk+7qbosY2WaShm2VZL89JRonDcpSYCG79beVBUpz+ZBd5X6NIKnDiALksWOyy30Y/H6/weNRqssw5NebgAAAABJRU5ErkJggg==;" vertex="1" parent="1">
          <mxGeometry x="440" y="450" width="62.18" height="60" as="geometry" />
        </mxCell>
        <mxCell id="9LfVYxGMdytWgAIbFfiO-16" value="" style="aspect=fixed;html=1;points=[];align=center;image;fontSize=12;image=img/lib/azure2/identity/App_Registrations.svg;" vertex="1" parent="1">
          <mxGeometry x="243.09" y="50" width="63" height="64" as="geometry" />
        </mxCell>
        <mxCell id="9LfVYxGMdytWgAIbFfiO-17" value="Power Apps" style="whiteSpace=wrap;html=1;" vertex="1" parent="1">
          <mxGeometry x="156.09" y="-20" width="150" height="60" as="geometry" />
        </mxCell>
        <mxCell id="9LfVYxGMdytWgAIbFfiO-18" value="" style="whiteSpace=wrap;html=1;fillColor=none;" vertex="1" parent="1">
          <mxGeometry x="123.09" y="320" width="496.91" height="80" as="geometry" />
        </mxCell>
        <mxCell id="9LfVYxGMdytWgAIbFfiO-20" value="" style="aspect=fixed;html=1;points=[];align=center;image;fontSize=12;image=img/lib/azure2/integration/Logic_Apps.svg;fillColor=none;" vertex="1" parent="1">
          <mxGeometry x="553" y="450" width="67" height="52" as="geometry" />
        </mxCell>
        <mxCell id="9LfVYxGMdytWgAIbFfiO-23" value="Scope API 1" style="text;html=1;resizable=0;autosize=1;align=center;verticalAlign=middle;points=[];fillColor=none;strokeColor=none;rounded=0;" vertex="1" parent="1">
          <mxGeometry x="380" y="240" width="80" height="20" as="geometry" />
        </mxCell>
        <mxCell id="9LfVYxGMdytWgAIbFfiO-24" value="Scope API 2" style="text;html=1;resizable=0;autosize=1;align=center;verticalAlign=middle;points=[];fillColor=none;strokeColor=none;rounded=0;" vertex="1" parent="1">
          <mxGeometry x="380" y="262" width="80" height="20" as="geometry" />
        </mxCell>
        <mxCell id="9LfVYxGMdytWgAIbFfiO-25" value="Scope API 3" style="text;html=1;resizable=0;autosize=1;align=center;verticalAlign=middle;points=[];fillColor=none;strokeColor=none;rounded=0;" vertex="1" parent="1">
          <mxGeometry x="380" y="282" width="80" height="20" as="geometry" />
        </mxCell>
        <mxCell id="9LfVYxGMdytWgAIbFfiO-26" value="Scope API 1" style="text;html=1;resizable=0;autosize=1;align=center;verticalAlign=middle;points=[];fillColor=none;strokeColor=none;rounded=0;" vertex="1" parent="1">
          <mxGeometry x="306.09000000000003" y="50" width="80" height="20" as="geometry" />
        </mxCell>
      </root>
    </mxGraphModel>
  </diagram>
</mxfile>
